<svg xmlns="http://www.w3.org/2000/svg" xmlns:xlink="http://www.w3.org/1999/xlink" width="90" height="90" viewBox="0 0 90 90"><defs><clipPath id="b"><rect width="90" height="90"/></clipPath></defs><g id="a" clip-path="url(#b)"><g transform="translate(2 2)"><g transform="translate(15.094 5.489)"><path d="M224,48V65.838h9.605V72.7h20.583V48Z" transform="translate(-200.673 -45.256)" fill="#ff9f0d"/><path d="M102.288,260.923a2.666,2.666,0,0,1,.806,1.938,2.752,2.752,0,0,1-2.744,2.744h-.24a9.374,9.374,0,0,0-6.621,2.744A13.709,13.709,0,0,1,88,257.372c0-.463.034-.926.069-1.372h2.487a5.508,5.508,0,0,1,4.562,2.436l1.115,1.681h4.117A2.736,2.736,0,0,1,102.288,260.923Z" transform="translate(-88 -217.579)" fill="#ff9f0d"/><path d="M181.722,197.722a13.8,13.8,0,0,1-1.767,6.741l-4.683-1.561a4.632,4.632,0,0,1-3.156-4.391v-1.063a4.617,4.617,0,0,0-2.058-3.842A4.617,4.617,0,0,1,168,189.763V184A13.718,13.718,0,0,1,181.722,197.722Z" transform="translate(-154.278 -157.929)" fill="#ff9f0d"/><path d="M436.35,32H424V42.977h12.35l-5.489-5.489Z" transform="translate(-366.369 -32)" fill="#ff9f0d"/></g><path d="M71.353,52.142H74.1V0H31.56A6.859,6.859,0,0,0,24.7,6.861V24.7H6.861A6.859,6.859,0,0,0,0,31.56V79.586a5.5,5.5,0,0,0,5.489,5.489H49.4V82.33H46.654a2.744,2.744,0,1,1,0-5.489H49.4V60.375H74.1V57.631H71.353a2.744,2.744,0,1,1,0-5.489Zm0-2.744H49.4V24.7H35.677V2.744H71.353ZM27.443,6.861A4.129,4.129,0,0,1,31.56,2.744h1.372V24.7H27.443ZM6.861,27.443H8.233V74.1H5.489a5.481,5.481,0,0,0-2.744.755V31.56A4.129,4.129,0,0,1,6.861,27.443ZM41.92,82.33H5.489a2.744,2.744,0,1,1,0-5.489H41.92a5.312,5.312,0,0,0-.755,2.744A5.481,5.481,0,0,0,41.92,82.33ZM10.977,74.1V27.443H46.654V74.1ZM49.4,57.631V52.142H66.619a5.312,5.312,0,0,0-.755,2.744,5.481,5.481,0,0,0,.755,2.744Z"/><path d="M95.094,176a15.094,15.094,0,1,0,15.094,15.094A15.116,15.116,0,0,0,95.094,176Zm0,27.443a12.35,12.35,0,1,1,12.35-12.35A12.364,12.364,0,0,1,95.094,203.443Z" transform="translate(-66.278 -145.812)"/><path d="M80,368h30.188v2.744H80Z" transform="translate(-66.278 -304.88)"/><path d="M224,400h5.489v2.744H224Z" transform="translate(-185.579 -331.391)"/><path d="M80,400h21.955v2.744H80Z" transform="translate(-66.278 -331.391)"/><path d="M304,208h16.466v2.744H304Z" transform="translate(-251.857 -172.324)"/><path d="M304,240h16.466v2.744H304Z" transform="translate(-251.857 -198.835)"/></g></g></svg>