<svg xmlns="http://www.w3.org/2000/svg" xmlns:xlink="http://www.w3.org/1999/xlink" width="90" height="90" viewBox="0 0 90 90"><defs><clipPath id="b"><rect width="90" height="90"/></clipPath></defs><g id="a" clip-path="url(#b)"><g transform="translate(2 8)"><g transform="translate(5.489 5.489)"><path d="M62.445,68.757A26.138,26.138,0,0,1,58.071,54.3v-.343A25.993,25.993,0,0,1,69.306,32.532a31.557,31.557,0,1,0,8.473,59.209Z" transform="translate(-32 -32)" fill="#ff9f0d"/></g><g transform="translate(35.677 5.489)"><path d="M229.955,75.909A21.955,21.955,0,1,1,251.91,53.955,21.975,21.975,0,0,1,229.955,75.909Z" transform="translate(-208 -32)" fill="#ff9f0d"/></g><path d="M57.631,0a27.5,27.5,0,0,0-9.468,1.715,37.051,37.051,0,1,0,4.923,68.711l1.269,1.921a3.942,3.942,0,0,0,6.552,0L80.461,43a27.37,27.37,0,0,0,4.614-15.231v-.343A27.476,27.476,0,0,0,57.631,0ZM44.218,3.533A27.594,27.594,0,0,0,32.5,16.466H26.637C29.553,8.027,33.824,2.744,37.066,2.744A33.475,33.475,0,0,1,44.218,3.533ZM31.354,35.676H23.361A64.751,64.751,0,0,1,25.78,19.21h5.695A27.277,27.277,0,0,0,30.2,27.443v.343a26.539,26.539,0,0,0,1.149,7.89Zm5.695,35.676c-3.225,0-7.513-5.283-10.429-13.722H44.544l.84,1.252c-2.127,7.7-5.283,12.47-8.336,12.47ZM25.763,54.887a64.752,64.752,0,0,1-2.418-16.466h9A26.763,26.763,0,0,0,34.8,43l7.924,11.886ZM2.779,38.421H20.6a69.729,69.729,0,0,0,2.316,16.466H7.753A34.185,34.185,0,0,1,2.779,38.421Zm0-2.744A34.185,34.185,0,0,1,7.753,19.21H22.915A69.729,69.729,0,0,0,20.6,35.676ZM30.685,3.345c-2.744,2.916-5.18,7.53-6.964,13.121H9.622A34.356,34.356,0,0,1,30.685,3.345ZM9.622,57.631h14.1c1.8,5.592,4.219,10.206,6.964,13.121A34.356,34.356,0,0,1,9.622,57.631ZM42.88,70.855a27.443,27.443,0,0,0,4.494-9l4.185,6.278A34.241,34.241,0,0,1,42.88,70.855ZM82.33,27.786a24.7,24.7,0,0,1-4.151,13.7L58.626,70.838a1.237,1.237,0,0,1-1.99,0L37.083,41.491a24.7,24.7,0,0,1-4.151-13.7v-.343a24.7,24.7,0,0,1,49.4,0Z"/><path d="M263.118,65.87A6.41,6.41,0,0,0,258.5,64a6.277,6.277,0,0,0-5.849,3.962l-.789,1.972h0a8.068,8.068,0,0,1-1.767,2.693l-.48.48a6.383,6.383,0,0,1-4.6,1.87,4.952,4.952,0,0,0-4.923,4.957v.154a4.842,4.842,0,0,0,1.955,3.894l2.024,1.509a3.8,3.8,0,0,1,1.509,3.1,4.164,4.164,0,0,0,1.235,2.967A4.235,4.235,0,0,0,249.86,92.8h0a4.371,4.371,0,0,0,3.036-1.252l3.225-3.225a1.881,1.881,0,0,1,1.921-.446,1.843,1.843,0,0,1,1.269,1.767v3.173a4.117,4.117,0,0,0,8.233,0v-2.11a1.829,1.829,0,0,1,1.029-1.664l1.407-.7a5.484,5.484,0,0,0,3.053-4.94V79.42a8.749,8.749,0,0,0-2.556-6.192ZM270.271,83.4a2.723,2.723,0,0,1-1.527,2.47l-1.406.7a4.589,4.589,0,0,0-2.556,4.134v2.11a1.372,1.372,0,1,1-2.744,0V89.66a4.61,4.61,0,0,0-3.156-4.374,4.829,4.829,0,0,0-1.475-.24,4.656,4.656,0,0,0-3.259,1.355l-3.225,3.225a1.591,1.591,0,0,1-1.166.446h0a1.439,1.439,0,0,1-1.029-.429,1.486,1.486,0,0,1-.429-1.1,6.556,6.556,0,0,0-2.607-5.231l-2.024-1.527a2.1,2.1,0,0,1-.858-1.7v-.154a2.223,2.223,0,0,1,2.281-2.213,9.028,9.028,0,0,0,6.432-2.659l.48-.48a10.725,10.725,0,0,0,2.384-3.619l.789-1.972a3.562,3.562,0,0,1,3.362-2.23,3.656,3.656,0,0,1,2.607,1.063l7.341,7.341a5.965,5.965,0,0,1,1.749,4.254Z" transform="translate(-198.918 -53.023)" fill="#fff"/><path d="M296,320h2.744v2.744H296Z" transform="translate(-245.23 -265.113)"/><path d="M328,320h2.744v2.744H328Z" transform="translate(-271.741 -265.113)"/><path d="M360,320h2.744v2.744H360Z" transform="translate(-298.252 -265.113)"/><path d="M33.7,177.313l2.727.377a25.217,25.217,0,0,1,.48-2.573l-2.676-.617C34.009,175.409,33.837,176.37,33.7,177.313Z" transform="translate(-27.92 -144.57)"/><path d="M42.312,142.7c-.377.875-.72,1.784-1.012,2.676l2.607.858c.274-.823.583-1.647.926-2.453Z" transform="translate(-34.216 -118.224)"/></g></g></svg>