<svg xmlns="http://www.w3.org/2000/svg" xmlns:xlink="http://www.w3.org/1999/xlink" width="90" height="90" viewBox="0 0 90 90"><defs><clipPath id="b"><rect width="90" height="90"/></clipPath></defs><g id="a" clip-path="url(#b)"><g transform="translate(2 2)"><g transform="translate(16.01 9.996)"><rect width="13.861" height="35.807" transform="translate(0 10.395)" fill="#ff9f0d"/><ellipse cx="12.706" cy="12.128" rx="12.706" ry="12.128" transform="translate(19.636 0)" fill="#ff9f0d"/></g><path d="M57.631,416v2.744h24.7v4.117a4.129,4.129,0,0,1-4.117,4.116H6.861a4.129,4.129,0,0,1-4.117-4.116v-4.117h24.7V416H0v6.861a6.859,6.859,0,0,0,6.861,6.861H78.214a6.859,6.859,0,0,0,6.861-6.861V416Z" transform="translate(0 -344.647)"/><path d="M176,420.116a4.129,4.129,0,0,0,4.117,4.117h16.466a4.129,4.129,0,0,0,4.117-4.117V416H176Zm2.744-1.372h19.21v1.372a1.376,1.376,0,0,1-1.372,1.372H180.117a1.376,1.376,0,0,1-1.372-1.372Z" transform="translate(-145.812 -344.647)"/><path d="M18.744,110.861a4.129,4.129,0,0,1,4.117-4.117h2.744V104H22.861A6.859,6.859,0,0,0,16,110.861V154.77h2.744Z" transform="translate(-13.256 -86.162)"/><path d="M430.861,110.861V154.77h2.744V110.861A6.859,6.859,0,0,0,426.744,104H424v2.744h2.744A4.129,4.129,0,0,1,430.861,110.861Z" transform="translate(-351.275 -86.162)"/><path d="M48,138.744v42.537h2.744V138.744h1.372V136H50.744A2.752,2.752,0,0,0,48,138.744Z" transform="translate(-39.767 -112.673)"/><path d="M425.372,181.282h2.744V138.744A2.752,2.752,0,0,0,425.372,136H424v2.744h1.372Z" transform="translate(-351.275 -112.673)"/><path d="M106.744,2.744H153.4V68.609h2.744V0H104V9.605h2.744Z" transform="translate(-86.162)"/><path d="M96.233,102.493a8.235,8.235,0,0,0,8.233-8.233V54.073L96.233,40.9,88,54.073V94.26A8.235,8.235,0,0,0,96.233,102.493Zm0-2.744a5.5,5.5,0,0,1-5.489-5.489V91.516h10.977V94.26A5.5,5.5,0,0,1,96.233,99.749ZM94.861,55.84V83.283H90.744V55.84Zm6.861,0V83.283H97.605V55.84Zm0,30.188v2.744H90.744V86.027Zm-1.1-32.932H91.859l4.374-7.015Z" transform="translate(-72.906 -33.885)"/><path d="M227.443,61.722a13.722,13.722,0,1,0-13.722,13.722A13.74,13.74,0,0,0,227.443,61.722ZM213.722,72.7A10.977,10.977,0,1,1,224.7,61.722,10.988,10.988,0,0,1,213.722,72.7Z" transform="translate(-165.696 -39.767)"/><path d="M252.117,84.117h2.744a1.376,1.376,0,0,1,1.372,1.372h2.744a4.129,4.129,0,0,0-4.117-4.117V80h-2.744v1.372a4.117,4.117,0,1,0,0,8.233h2.744a1.372,1.372,0,0,1,0,2.744h-2.744a1.376,1.376,0,0,1-1.372-1.372H248a4.129,4.129,0,0,0,4.117,4.117v1.372h2.744V95.094a4.117,4.117,0,0,0,0-8.233h-2.744a1.372,1.372,0,1,1,0-2.744Z" transform="translate(-205.463 -66.278)" fill="#fff"/><g transform="translate(34.491 37.717)"><rect width="2.31" height="3.465" transform="translate(0 0)" fill="#595959"/><rect width="24.256" height="3.465" transform="translate(5.775 0)" fill="#595959"/><rect width="2.31" height="2.31" transform="translate(27.721 17.326)" fill="#595959"/><rect width="24.256" height="2.31" transform="translate(0 17.326)" fill="#595959"/><rect width="30.031" height="3.465" transform="translate(0 5.775)" fill="#595959"/><rect width="30.031" height="3.465" transform="translate(0 21.946)" fill="#595959"/><rect width="13.861" height="2.31" transform="translate(0 11.551)" fill="#595959"/><rect width="13.861" height="2.31" transform="translate(16.171 11.551)" fill="#595959"/></g></g></g></svg>