<svg xmlns="http://www.w3.org/2000/svg" xmlns:xlink="http://www.w3.org/1999/xlink" width="90" height="90" viewBox="0 0 90 90"><defs><clipPath id="b"><rect width="90" height="90"/></clipPath></defs><g id="a" clip-path="url(#b)"><g transform="translate(2 2)"><path d="M194.977,22.055a10.977,10.977,0,1,1,10.977-10.977A10.988,10.988,0,0,1,194.977,22.055Z" transform="translate(-152.444 -0.1)" fill="#ff9f0d"/><g transform="translate(0 4.117)"><path d="M79.467,102.49a20.228,20.228,0,0,0-27.512-1.544L42.573,108.8l-9.382-7.856A20.228,20.228,0,0,0,5.678,102.49a20.459,20.459,0,0,0,1.647,29.793l4.151,3.465a6.166,6.166,0,0,0,.635,6.14,6.017,6.017,0,0,0,4.168,2.367,5.624,5.624,0,0,0,1.2.017,6.981,6.981,0,0,0-.051.858,6.186,6.186,0,0,0,2.367,4.751,5.96,5.96,0,0,0,4.254,1.218,7.557,7.557,0,0,0-.051.892,6.185,6.185,0,0,0,2.367,4.751,5.88,5.88,0,0,0,4.254,1.218,7.556,7.556,0,0,0-.051.892,6.186,6.186,0,0,0,2.367,4.751,5.872,5.872,0,0,0,3.671,1.252,6.347,6.347,0,0,0,4.082-1.492l.532-.446a5.933,5.933,0,0,0,4.065,1.561,6.031,6.031,0,0,0,4.185-1.664,6.186,6.186,0,0,0,1.9-4.494,3.948,3.948,0,0,0-.051-.446,6.664,6.664,0,0,0,.84.069,6.031,6.031,0,0,0,4.185-1.664,6.157,6.157,0,0,0,1.9-4.494,3.537,3.537,0,0,0-.051-.446,6.933,6.933,0,0,0,.84.069,6.032,6.032,0,0,0,4.185-1.664,6.157,6.157,0,0,0,1.9-4.494,3.538,3.538,0,0,0-.051-.446,6.664,6.664,0,0,0,.84.069,6.031,6.031,0,0,0,4.185-1.664,6.186,6.186,0,0,0,1.9-4.494,5.69,5.69,0,0,0-.172-1.321c.017-.017.034-.017.051-.034l5.969-5.06a20.438,20.438,0,0,0,1.612-29.81Zm-70.375,27.7a17.578,17.578,0,0,1,22.332-27.152l22.349,18.679a3.467,3.467,0,0,1,.274,5.026,3.342,3.342,0,0,1-4.545.292l-10.12-8.147a1.363,1.363,0,0,0-1.921.206v.017l-.017-.017a8.67,8.67,0,0,1-6.861,3.328,8.806,8.806,0,0,1-8.765-8.833H19.074A11.6,11.6,0,0,0,24.837,123.6L13.242,133.3a1.954,1.954,0,0,0-.189.189ZM34.6,161.442a3.384,3.384,0,0,1-.1-5.283l.738-.617a6.15,6.15,0,0,0,1.887,3.653l2.024,1.852-.257.206A3.4,3.4,0,0,1,34.6,161.442Zm12.95-.6a3.336,3.336,0,0,1-4.545.034l-4.014-3.7a3.349,3.349,0,0,1-1.1-2.47,3.4,3.4,0,0,1,1.046-2.487,3.342,3.342,0,0,1,4.545-.034L44.8,153.4l2.71,2.487a3.333,3.333,0,0,1,1.081,2.47A3.4,3.4,0,0,1,47.547,160.842Zm6.861-6.535a3.336,3.336,0,0,1-4.545.034l-.5-.463-.017-.017-3.5-3.225h0a3.349,3.349,0,0,1-1.1-2.47,3.339,3.339,0,0,1,5.592-2.521l4.014,3.7a3.4,3.4,0,0,1,.051,4.957Zm6.878-6.552a3.336,3.336,0,0,1-4.545.034l-4.014-3.7a3.349,3.349,0,0,1-1.1-2.47,3.339,3.339,0,0,1,5.592-2.521l2.933,2.693,1.1,1.012a3.42,3.42,0,0,1,.034,4.957Zm6.878-6.535a3.336,3.336,0,0,1-4.545.034l-.515-.463-.017-.017-3.1-2.864-.377-.343a3.349,3.349,0,0,1-1.1-2.47,3.4,3.4,0,0,1,1.046-2.487,3.342,3.342,0,0,1,4.545-.034l4.014,3.7a3.349,3.349,0,0,1,1.1,2.47A3.267,3.267,0,0,1,68.164,141.22ZM82.349,117.6a17.477,17.477,0,0,1-6.312,12.59l-5.506,4.683a6.147,6.147,0,0,0-.549-.617l-4.014-3.7a6.068,6.068,0,0,0-8.285.069,6.157,6.157,0,0,0-1.9,4.494,3.946,3.946,0,0,0,.051.446,6.067,6.067,0,0,0-5.026,1.6,6.186,6.186,0,0,0-1.9,4.494,3.947,3.947,0,0,0,.051.446,6.067,6.067,0,0,0-5.026,1.6,6.186,6.186,0,0,0-1.9,4.494,3.946,3.946,0,0,0,.051.446,6.067,6.067,0,0,0-5.026,1.6,6.632,6.632,0,0,0-.926,1.149,1.53,1.53,0,0,0-.5.257l-2.882,2.418h0l-.412.343a3.441,3.441,0,0,1-4.288.189,3.356,3.356,0,0,1-1.3-2.624,3.433,3.433,0,0,1,1.2-2.659h0L42.212,137.36l-1.767-2.11L26.175,147.189h0l-.412.343a3.352,3.352,0,0,1-5.609-2.453,3.373,3.373,0,0,1,1.2-2.641h0l14.476-12.109-1.767-2.11L19.589,140.328h0l-.532.446a3.318,3.318,0,0,1-2.5.755,3.362,3.362,0,0,1-2.3-1.3,3.553,3.553,0,0,1,.72-4.8l12.693-10.617a11.34,11.34,0,0,0,10.943-2.967l9.108,7.341a6.072,6.072,0,0,0,8.25-.532,6.15,6.15,0,0,0,1.7-4.614,6.274,6.274,0,0,0-2.2-4.408l-10.823-9.039,9-7.53a17.571,17.571,0,0,1,28.7,14.545Z" transform="translate(-0.022 -83.897)"/><path d="M219.43,36.45h.686v1.372h2.744V36.45h.686a3.43,3.43,0,1,0,0-6.861H219.43a.686.686,0,1,1,0-1.372h4.117a.688.688,0,0,1,.686.686v.686h2.744V28.9a3.441,3.441,0,0,0-3.43-3.43h-.686V24.1h-2.744v1.372h-.686a3.43,3.43,0,0,0,0,6.861h4.117a.686.686,0,1,1,0,1.372H219.43a.688.688,0,0,1-.686-.686v-.686H216v.686A3.441,3.441,0,0,0,219.43,36.45Z" transform="translate(-178.955 -24.1)" fill="#fff"/><path d="M331.23,50.861l.137-2.744c-.257-.017-.515-.017-.755-.017H328.4v2.744h2.213C330.818,50.844,331.024,50.844,331.23,50.861Z" transform="translate(-272.076 -43.983)"/><path d="M363.522,52.535a13.229,13.229,0,0,0-2.967-1.235l-.755,2.641a12.079,12.079,0,0,1,2.384.995Z" transform="translate(-298.09 -46.635)"/><path d="M389.962,71.9a14.129,14.129,0,0,0-2.127-2.4L386,71.524a12.279,12.279,0,0,1,1.715,1.938Z" transform="translate(-319.796 -61.713)"/><path d="M90.962,71.424,89.127,69.4A14.907,14.907,0,0,0,87,71.8l2.247,1.578A10.958,10.958,0,0,1,90.962,71.424Z" transform="translate(-72.081 -61.63)"/><path d="M118.322,53.941l-.755-2.641a14.463,14.463,0,0,0-2.967,1.235l1.338,2.4A10.019,10.019,0,0,1,118.322,53.941Z" transform="translate(-94.947 -46.635)"/><path d="M151.055,50.844h2.23V48.1h-2.23c-.257,0-.5,0-.755.017l.154,2.744C150.643,50.844,150.849,50.844,151.055,50.844Z" transform="translate(-124.524 -43.983)"/></g><text transform="translate(39.33 41.809)" font-size="1" font-family="SegoeUI, Segoe UI"><tspan x="0" y="0">ff9f0d</tspan></text></g></g></svg>