<?xml version="1.0" encoding="UTF-8"?>
<svg id="OBJECTS" xmlns="http://www.w3.org/2000/svg" viewBox="0 0 64 64">
  <defs>
    <style>
      .cls-1 {
        fill: #fea700;
      }
    </style>
  </defs>
  <path d="M0,47.85c.33-.37,.64-.75,.98-1.11,2.6-2.7,5.2-5.4,7.8-8.1,.83-.86,1.45-.89,2.28-.05,.48,.49,.9,1.04,1.41,1.63,.29-.36,.43-.54,.57-.71,2.28-2.9,5.08-5.03,8.75-5.83,2.16-.47,4.31-.36,6.43,.22,2.03,.55,4.08,.77,6.18,.77,2.98,0,5.96,.03,8.94-.01,1.89-.02,3.43,.57,4.52,2.27,.18-.17,.35-.31,.5-.46,2.19-2.17,4.37-4.35,6.58-6.5,2.25-2.2,5.9-2.01,7.95,.37,1.5,1.74,1.5,3.98-.07,5.87-1.82,2.2-3.69,4.36-5.53,6.53-1.47,1.73-2.98,3.42-4.4,5.2-1.8,2.25-4.19,3.27-6.96,3.39-3.1,.13-6.21,.06-9.31,.08-2.98,.02-5.96,.03-8.93,.08-.95,.02-1.89,.18-2.96,.28,.2,.22,.33,.37,.47,.51,.81,.81,.82,1.44,.03,2.26-2.03,2.09-4.07,4.18-6.11,6.26-.71,.73-1.42,1.47-2.14,2.19-.69,.69-1.33,.71-2.02,.05-4.82-4.58-9.63-9.16-14.43-13.74C.32,49.1,.17,48.84,0,48.6c0-.25,0-.5,0-.75Zm14.47-5.97c2.49,2.42,4.96,4.8,7.41,7.21,.34,.33,.66,.42,1.11,.36,3.1-.44,6.21-.61,9.34-.58,4.31,.04,8.62,.03,12.93-.01,2.4-.02,4.4-.87,5.97-2.84,2.17-2.72,4.48-5.32,6.73-7.97,.98-1.16,1.99-2.3,2.94-3.48,.91-1.13,.7-2.28-.51-3.09-1.23-.82-2.71-.7-3.77,.34-2.6,2.56-5.18,5.13-7.76,7.7-.16,.16-.31,.41-.34,.63-.42,2.93-2.15,4.46-5.11,4.47-2.67,0-5.33,0-8,0-.17,0-.33,0-.5-.01-.6-.07-1.04-.5-1.1-1.09-.07-.6,.25-1.13,.83-1.31,.25-.08,.53-.09,.8-.09,2.75,0,5.5,0,8.25,0,.88,0,1.59-.32,2.02-1.12,.99-1.84-.15-3.8-2.22-3.8-2.96,0-5.91-.01-8.87,0-2.41,.01-4.78-.23-7.1-.87-5.7-1.56-10.34,1.46-13.05,5.55Zm8.3,11.56c-4.3-4.17-8.54-8.28-12.79-12.41-2.34,2.43-4.61,4.79-6.93,7.2,4.32,4.11,8.59,8.17,12.87,12.25,2.31-2.37,4.56-4.68,6.85-7.03Z"/>
  <path d="M20.33,12.29c.79,.68,1.54,1.32,2.23,1.92,.71-.61,1.47-1.26,2.22-1.91-2.88-3.96-1.33-8.18,1.09-10.16,2.72-2.23,6.72-2.18,9.36,.11,2.48,2.15,3.7,6.32,.95,10.05,.75,.64,1.5,1.29,2.23,1.91,.7-.6,1.44-1.24,2.24-1.92-1.41-1.86-1.92-4-1.34-6.34,.42-1.7,1.38-3.06,2.79-4.09,2.78-2.02,6.61-1.77,9.15,.56,2.34,2.15,3.48,6.23,.73,9.94,.13,.09,.26,.18,.39,.27,2.01,1.32,3.08,3.17,3.12,5.58,.03,1.92,.02,3.83,0,5.75-.01,1.68-1.16,2.96-2.84,3.05-1.54,.08-3.08,.04-4.62,.04-2.42,0-4.83,.04-7.25-.02-.72-.02-1.44-.29-2.17-.43-.14-.03-.3-.02-.45,0-.64,.14-1.28,.42-1.92,.42-3.85,.04-7.71,.04-11.56,0-.62,0-1.24-.27-1.86-.4-.18-.04-.38-.03-.56,0-.62,.13-1.24,.39-1.86,.39-3.85,.04-7.71,.03-11.56,.02-2.19,0-3.38-1.22-3.38-3.42,0-1.67,.02-3.33,0-5-.04-2.69,1.06-4.74,3.36-6.14,.05-.03,.09-.08,.18-.14-1.38-1.84-1.95-3.88-1.45-6.16,.38-1.73,1.29-3.15,2.71-4.22C13.13-.2,17.03,.02,19.64,2.49c2.47,2.34,3.22,6.45,.68,9.79Zm26,12.22c1.96,0,3.91,0,5.87,0,.49,0,.81-.12,.8-.69-.01-1.94,.03-3.87-.02-5.81-.05-1.74-1.28-3.23-2.96-3.68-.22-.06-.5-.05-.71,.03-1.98,.84-3.96,.84-5.94,0-.21-.09-.49-.1-.71-.04-1.8,.47-2.97,2.05-3,4.04-.02,1.77,0,3.54,0,5.31,0,.71,.13,.82,.85,.82,1.94,0,3.87,0,5.81,0Zm-31.7,0c1.98,0,3.95,0,5.93,0,.48,0,.75-.17,.75-.68-.01-1.98,.03-3.96-.04-5.93-.06-1.68-1.25-3.09-2.86-3.55-.25-.07-.58-.07-.82,.03-1.97,.82-3.92,.81-5.88,0-.22-.09-.53-.1-.77-.03-1.7,.47-2.9,2-2.93,3.77-.03,1.85-.01,3.7,0,5.56,0,.74,.09,.84,.83,.84,1.94,0,3.87,0,5.81,0Zm15.86,0c1.96,0,3.91,0,5.87,0,.54,0,.81-.17,.8-.75-.02-1.89,.01-3.79-.02-5.68-.03-1.77-1.24-3.29-2.95-3.74-.22-.06-.5-.06-.71,.03-1.98,.84-3.95,.84-5.94,0-.22-.09-.53-.1-.77-.03-1.66,.46-2.85,1.92-2.9,3.65-.05,1.89-.02,3.79-.02,5.68,0,.73,.1,.83,.84,.83,1.94,0,3.87,0,5.81,0Zm0-12.03c2.61,0,4.74-2.12,4.75-4.72,.01-2.61-2.16-4.78-4.77-4.77-2.6,.02-4.71,2.15-4.71,4.76,0,2.6,2.13,4.73,4.74,4.73Zm-11.11-4.76c0-2.6-2.14-4.73-4.74-4.73-2.59,0-4.74,2.14-4.74,4.73,0,2.62,2.15,4.76,4.78,4.75,2.6,0,4.71-2.15,4.7-4.76Zm22.22,0c-.01,2.62,2.08,4.75,4.68,4.77,2.64,.02,4.79-2.12,4.79-4.74,0-2.59-2.14-4.74-4.73-4.75-2.6,0-4.73,2.11-4.74,4.72Z"/>
  <path class="cls-1" d="M46.32,24.51c-1.94,0-3.87,0-5.81,0-.73,0-.85-.12-.85-.82,0-1.77-.02-3.54,0-5.31,.02-2,1.2-3.57,3-4.04,.22-.06,.5-.04,.71,.04,1.99,.84,3.96,.83,5.94,0,.21-.09,.49-.09,.71-.03,1.68,.45,2.91,1.94,2.96,3.68,.05,1.93,.01,3.87,.02,5.81,0,.57-.32,.69-.8,.69-1.96-.01-3.91,0-5.87,0Z"/>
  <path class="cls-1" d="M14.62,24.51c-1.94,0-3.87,0-5.81,0-.73,0-.83-.1-.83-.84,0-1.85-.02-3.7,0-5.56,.03-1.77,1.22-3.3,2.93-3.77,.24-.07,.54-.06,.77,.03,1.96,.82,3.91,.82,5.88,0,.24-.1,.57-.11,.82-.03,1.61,.46,2.8,1.87,2.86,3.55,.07,1.97,.03,3.95,.04,5.93,0,.51-.26,.68-.75,.68-1.98-.01-3.95,0-5.93,0Z"/>
  <path class="cls-1" d="M30.48,24.51c-1.94,0-3.87,0-5.81,0-.74,0-.84-.1-.84-.83,0-1.89-.03-3.79,.02-5.68,.05-1.73,1.24-3.19,2.9-3.65,.24-.07,.54-.06,.77,.03,1.99,.83,3.96,.83,5.94,0,.21-.09,.49-.09,.71-.03,1.71,.46,2.92,1.98,2.95,3.74,.03,1.89,0,3.79,.02,5.68,0,.58-.26,.76-.8,.75-1.96-.02-3.91,0-5.87,0Z"/>
  <path d="M31.16,43.35c.01,.72-.52,1.27-1.24,1.27-.7,0-1.26-.55-1.27-1.26-.02-.69,.55-1.27,1.25-1.27,.71,0,1.25,.54,1.26,1.26Z"/>
</svg>