<?xml version="1.0" encoding="UTF-8"?>
<svg id="OBJECTS" xmlns="http://www.w3.org/2000/svg" viewBox="0 0 64 64">
  <defs>
    <style>
      .cls-1 {
        fill: #fea700;
      }
    </style>
  </defs>
  <path d="M41.97,6.89c1,.13,1.8,.2,2.59,.35,1.51,.29,2.66,1.09,3.41,2.48,.93,1.71,1.89,3.4,2.92,5.05,.89,1.43,.95,2.89,.41,4.43-.67,1.94-1.84,3.56-3.18,5.07-2.86,3.25-6.26,5.86-9.92,8.14-4.43,2.77-9.09,5.03-14.16,6.36-2.32,.6-4.67,1.02-7.08,.71-1.89-.24-3.39-1.01-4.32-2.8-.87-1.69-1.86-3.32-2.85-4.94-.81-1.33-.92-2.69-.46-4.14,.71-2.25,2.11-4.08,3.68-5.78,3.34-3.63,7.3-6.47,11.56-8.91,4.12-2.36,8.42-4.31,13.08-5.35,1.48-.33,3-.48,4.32-.68Zm-14.6,29.01c1.47-.64,2.91-1.25,4.38-1.89-.43-.75-.8-1.41-1.18-2.08,.53-.31,1-.58,1.53-.88,.42,.72,.82,1.4,1.26,2.15,1.39-.81,2.74-1.59,4.1-2.37-.43-.76-.81-1.45-1.21-2.17,.54-.31,1.02-.58,1.52-.87,.4,.68,.78,1.33,1.21,2.06,1.31-.98,2.55-1.91,3.81-2.85-.45-.8-.87-1.53-1.3-2.3,.52-.3,1-.58,1.52-.88,.39,.66,.74,1.27,1.19,2.03,1.11-1.2,2.15-2.32,3.17-3.47,.09-.1,.05-.4-.03-.55-.35-.67-.74-1.31-1.14-2,.53-.3,1.01-.58,1.53-.87,.33,.56,.63,1.05,1.01,1.7,.37-.89,.76-1.63,.98-2.41,.15-.55,.23-1.24,.02-1.73-.49-1.14-1.17-2.2-1.81-3.35-1.65,3.23-2.39,4.31-4.42,6.35-4.5,4.53-9.8,7.89-15.55,10.57-3.44,1.6-6.99,2.9-10.79,3.33-1.4,.16-2.83,.03-4.32,.03,.61,1.05,1.18,2.07,1.79,3.05,.16,.26,.42,.48,.69,.64,1.06,.61,2.23,.67,3.52,.67-.33-.6-.62-1.1-.92-1.65,.54-.31,1.02-.58,1.52-.87,.12,.2,.2,.34,.29,.48,.38,.6,.63,1.51,1.17,1.72,.58,.23,1.43-.14,2.14-.31,.85-.2,1.68-.46,2.57-.71-.4-.72-.75-1.34-1.11-1.98,.54-.31,1.01-.58,1.52-.87,.45,.76,.87,1.48,1.34,2.27Zm-12.11-3.97c1.46-.23,2.7-.37,3.91-.64,5.02-1.14,9.6-3.32,13.97-5.97,3.96-2.4,7.62-5.18,10.62-8.75,1.01-1.2,1.91-2.48,2.41-3.99,.67-2.02-.06-3.23-2.14-3.66-.1-.02-.21-.03-.31-.04-2.36-.34-4.64,.08-6.88,.72-7.5,2.13-14.12,5.89-20,10.97-1.86,1.61-3.59,3.36-4.83,5.51-.5,.86-.88,1.83-1.12,2.8-.29,1.19,.23,2.11,1.41,2.48,1.01,.32,2.09,.42,2.95,.58Z"/>
  <path d="M31.12,63.99c-5.16,0-10.25-.48-15.17-2.17-1.83-.63-3.57-1.43-5.05-2.71-1.25-1.08-1.93-2.4-1.88-4.11,.06-1.9,.06-3.81,0-5.71-.05-1.68,.62-2.99,1.85-4.06,1.68-1.46,3.68-2.31,5.76-2.96,5.45-1.71,11.06-2.14,16.73-1.94,4.28,.15,8.5,.71,12.59,2.08,1.69,.57,3.31,1.28,4.75,2.36,1.59,1.18,2.52,2.65,2.41,4.74-.1,1.9-.06,3.81-.01,5.71,.03,1.41-.49,2.55-1.46,3.52-1.53,1.51-3.42,2.38-5.41,3.07-4.21,1.46-8.58,2.02-13.01,2.18-.7,.02-1.4,0-2.09,0Zm-.56-8.64c3.81,0,7.13-.26,10.42-.9,2.56-.5,5.08-1.15,7.36-2.45,.88-.5,1.71-1.17,2.41-1.91,.82-.88,.76-1.89,0-2.82-.38-.47-.83-.93-1.35-1.23-1.11-.64-2.25-1.27-3.45-1.72-3.34-1.27-6.85-1.82-10.4-2.09-5.56-.42-11.07-.15-16.49,1.19-2.36,.59-4.68,1.35-6.65,2.84-2.11,1.6-2.09,3.27,.02,4.88,1.33,1.01,2.84,1.65,4.41,2.17,4.6,1.53,9.36,1.98,13.72,2.03Zm4.66,6.79c1.62-.19,3.17-.37,4.77-.55v-2.61h1.78v2.31c1.52-.47,2.95-.9,4.36-1.37,.16-.05,.33-.36,.35-.55,.04-.73,.02-1.47,.02-2.21h1.82v1.91c.74-.56,1.37-.98,1.94-1.47,.75-.64,1.12-1.44,1.06-2.46-.05-.8,0-1.61-.01-2.41,0-.15-.04-.3-.07-.51-1.61,1.32-3.39,2.14-5.26,2.77-3.9,1.31-7.92,1.86-12.02,2.06-4.75,.23-9.47-.04-14.12-1.06-3.18-.69-6.25-1.66-8.87-3.69-.02-.02-.08,.01-.14,.03,0,1.11-.03,2.23,.02,3.35,.02,.38,.17,.8,.37,1.12,.62,.97,1.53,1.59,2.65,2.16v-1.81h1.77c0,.75,.02,1.47,0,2.18-.01,.35,.08,.54,.44,.64,.89,.26,1.77,.57,2.66,.83,.53,.16,1.08,.27,1.71,.42v-2.23h1.75v2.61c1.6,.19,3.14,.37,4.75,.55v-2.35h1.75v2.39h4.79v-2.39h1.74v2.34Z"/>
  <path d="M9.07,4.25h1.69v13.23h-1.69V4.25Z"/>
  <path d="M52.55,39.72h-1.78v-2.43h-2.45v-1.77h2.42v-2.46h1.8v2.45h2.44v1.75h-2.43v2.48Z"/>
  <path d="M31.19,7.22h-1.67V0h1.67V7.22Z"/>
  <path d="M14.15,4.3v6.54h-1.7V4.3h1.7Z"/>
  <path d="M49.93,4.24h1.68v5.52h-1.68V4.24Z"/>
  <path class="cls-1" d="M30.56,55.35c-4.36-.05-9.12-.5-13.72-2.03-1.57-.52-3.08-1.16-4.41-2.17-2.11-1.6-2.13-3.28-.02-4.88,1.98-1.5,4.29-2.26,6.65-2.84,5.43-1.35,10.94-1.62,16.49-1.19,3.55,.27,7.05,.82,10.4,2.09,1.2,.45,2.33,1.08,3.45,1.72,.52,.3,.96,.76,1.35,1.23,.77,.93,.82,1.94,0,2.82-.69,.74-1.52,1.41-2.41,1.91-2.28,1.3-4.8,1.95-7.36,2.45-3.29,.64-6.61,.89-10.42,.9Zm-1.3-11.52c-.22,0-.38-.01-.54,0-2.02,.16-4.06,.2-6.06,.53-2.14,.35-4.25,.91-6.34,1.49-.73,.2-1.43,.65-2.03,1.13-1.25,1-1.24,2.37-.04,3.41,.41,.35,.89,.67,1.38,.88,.81,.35,1.64,.67,2.5,.9,2.99,.82,6.05,1.16,9.14,1.32,5.32,.26,10.61,.09,15.83-1.07,1.53-.34,3.04-.78,4.35-1.67,1.78-1.21,1.79-2.91-.02-4.07-.81-.52-1.72-.91-2.64-1.2-3.08-.99-6.27-1.35-9.48-1.53-1.38-.08-2.78-.01-4.19-.01v1.66c.33,0,.63,0,.92,0,3.92,.08,7.82,.33,11.61,1.4,1.02,.29,2,.78,2.95,1.26,.53,.27,.51,.58,0,.9-.62,.38-1.29,.73-1.98,.97-2.39,.83-4.88,1.18-7.39,1.42-3.56,.34-7.13,.37-10.71,.13-2.77-.18-5.52-.49-8.18-1.29-.98-.3-1.9-.78-2.82-1.24-.46-.23-.44-.61,0-.87,.56-.33,1.13-.67,1.74-.89,3.16-1.12,6.46-1.45,9.77-1.67,.75-.05,1.5-.08,2.23-.12v-1.75Z"/>
  <path class="cls-1" d="M35.21,62.14v-2.34h-1.74v2.39h-4.79v-2.39h-1.75v2.35c-1.61-.19-3.15-.37-4.75-.55v-2.61h-1.75v2.23c-.63-.15-1.18-.26-1.71-.42-.89-.26-1.77-.58-2.66-.83-.36-.1-.45-.29-.44-.64,.02-.71,0-1.43,0-2.18h-1.77v1.81c-1.11-.57-2.03-1.19-2.65-2.16-.21-.33-.36-.74-.37-1.12-.05-1.12-.02-2.23-.02-3.35,.07-.01,.12-.04,.14-.03,2.62,2.03,5.69,3,8.87,3.69,4.66,1.01,9.37,1.29,14.12,1.06,4.09-.2,8.12-.75,12.02-2.06,1.87-.63,3.65-1.45,5.26-2.77,.03,.21,.07,.36,.07,.51,0,.8-.04,1.61,.01,2.41,.06,1.02-.31,1.83-1.06,2.46-.57,.49-1.2,.91-1.94,1.47v-1.91h-1.82c0,.74,.02,1.48-.02,2.21-.01,.2-.18,.5-.35,.55-1.42,.47-2.85,.9-4.36,1.37v-2.31h-1.78v2.61c-1.6,.19-3.16,.37-4.77,.55Z"/>
  <path d="M16.06,30.41c-1.09-.18-2.16-.23-2.75-1.29-.59-1.04-.16-2.02,.39-2.92,1.12-1.86,2.72-3.29,4.39-4.62,5.73-4.57,12-8.18,18.98-10.47,1.66-.55,3.37-1.01,5.16-.71,1.66,.27,2.37,1.5,1.77,3.07-.48,1.27-1.36,2.28-2.3,3.23-2.56,2.59-5.5,4.69-8.58,6.59-4.09,2.53-8.33,4.76-12.94,6.17-1.34,.41-2.74,.63-4.12,.94Zm.12-1.81c1.19-.28,2.44-.47,3.61-.86,7.03-2.36,13.36-5.99,19.01-10.77,1.23-1.04,2.28-2.32,3.27-3.59,.7-.9,.41-1.39-.73-1.26-1.35,.15-2.73,.37-4.02,.8-6.64,2.22-12.61,5.67-18.08,10.02-1.49,1.19-2.91,2.46-3.95,4.09-.22,.35-.29,.81-.42,1.22,.41,.11,.83,.23,1.31,.36Z"/>
  <path d="M29.26,43.83v1.75c-.73,.04-1.48,.07-2.23,.12-3.32,.22-6.61,.56-9.77,1.67-.61,.22-1.18,.56-1.74,.89-.44,.26-.46,.64,0,.87,.92,.46,1.85,.95,2.82,1.24,2.66,.8,5.42,1.11,8.18,1.29,3.57,.24,7.14,.21,10.71-.13,2.51-.24,5-.59,7.39-1.42,.69-.24,1.36-.59,1.98-.97,.51-.31,.52-.63,0-.9-.95-.49-1.93-.98-2.95-1.26-3.79-1.07-7.69-1.32-11.61-1.4-.29,0-.58,0-.92,0v-1.66c1.41,0,2.8-.06,4.19,.01,3.21,.17,6.4,.54,9.48,1.53,.92,.29,1.83,.69,2.64,1.2,1.81,1.16,1.8,2.86,.02,4.07-1.31,.9-2.82,1.33-4.35,1.67-5.22,1.17-10.51,1.34-15.83,1.07-3.09-.15-6.15-.5-9.14-1.32-.85-.23-1.69-.55-2.5-.9-.5-.22-.97-.53-1.38-.88-1.2-1.04-1.21-2.41,.04-3.41,.6-.48,1.3-.93,2.03-1.13,2.09-.58,4.2-1.14,6.34-1.49,2-.32,4.04-.36,6.06-.53,.16-.01,.33,0,.54,0Z"/>
</svg>