<?xml version="1.0" encoding="UTF-8"?>
<svg id="OBJECTS" xmlns="http://www.w3.org/2000/svg" viewBox="0 0 64 64">
  <defs>
    <style>
      .cls-1 {
        fill: #fea700;
      }
    </style>
  </defs>
  <path d="M12.62,0c.81,.41,.97,1.12,.86,2,.28,0,.51,0,.73,0,5.25,0,10.5,.02,15.75,0,2.41-.01,4.53,.7,6.42,2.19,1.81,1.43,3.65,2.84,5.5,4.23,.26,.19,.63,.32,.95,.33,5.19,.02,10.37,.01,15.56,.01,2.27,0,3.6,1.34,3.6,3.62,0,6.1,0,12.21,0,18.31,0,2.24-1.34,3.58-3.57,3.58-4.42,0-8.83,0-13.25-.01-.39,0-.83-.13-1.15-.35-.42-.3-.51-.79-.32-1.3,.21-.55,.63-.82,1.2-.83,1.33-.01,2.67,0,4,0,1.71,0,3.41,0,5.16,0,.69-2.88,2.47-4.7,5.38-5.4v-9.7c-2.86-.69-4.66-2.47-5.37-5.39-.17,0-.36-.02-.54-.02-8.31,0-16.62,0-24.94,0-.12,0-.25,0-.37,0-.62,.05-1.06,.37-1.24,.97-.18,.6,.03,1.19,.59,1.51,1.94,1.1,3.89,2.16,5.86,3.26,1.01-1.22,2.23-2.08,3.74-2.52,4.14-1.2,8.33,1.34,9.25,5.62,.88,4.06-2.06,8.15-6.26,8.67-2.85,.35-5.14-.7-6.87-2.97-.26-.35-.52-.39-.92-.42-1.22-.09-2.43-.25-3.64-.43-3.28-.49-6.49-1.27-9.51-2.69-.05-.02-.12-.02-.21-.03v4.11c3.51,1.34,4.26,2.09,5.4,5.43,1.23,0,2.48,0,3.73,0,1.79,0,3.58,0,5.37,0,.72,0,1.23,.45,1.33,1.08,.08,.58-.29,1.18-.87,1.35-.18,.05-.37,.06-.56,.06-4.54,0-9.08,.01-13.62,0-1.91,0-3.3-1.42-3.31-3.34-.01-3.06-.02-6.12,.01-9.19,0-.68-.19-1.05-.77-1.43-.69-.45-1.36-.65-2.25-.49,0,.43,0,.88,0,1.33-.02,.86-.5,1.36-1.36,1.37-3.58,0-7.17,0-10.75,0-.67,0-1.07-.36-1.39-.88V0H12.62Zm.91,4.5v12.69c.07,.03,.11,.05,.15,.05,.46,0,.92-.03,1.37,.02,.36,.04,.76,.12,1.04,.32,4.68,3.38,10.09,4.58,15.66,5.32,1.27,.17,2.22-.91,1.98-2.16-.12-.64-.55-1.05-1.1-1.35-2.01-1.1-4.01-2.2-6.01-3.32-1.74-.97-2.53-2.7-2.07-4.45,.48-1.78,1.97-2.88,3.97-2.88,2.96,0,5.91,0,8.87,0,.21,0,.42,0,.81,0-1.26-.97-2.35-1.8-3.43-2.65-1.39-1.1-2.96-1.62-4.74-1.61-5.27,.02-10.54,0-15.8,0-.22,0-.45,0-.7,0ZM2.54,2.53V19.95H10.97V2.53H2.54ZM35.17,24.06c1.21,1.99,3.67,2.8,5.84,1.95,2.19-.86,3.48-3.2,2.95-5.5-.42-1.85-1.57-3.11-3.41-3.62-1.83-.51-3.46-.05-4.79,1.31-.13,.13-.22,.47-.14,.61,1.02,1.85,.84,3.58-.46,5.26Zm21.58-12.81c.29,1.33,1.48,2.51,2.74,2.73,0-.69,.03-1.37-.01-2.04-.03-.45-.36-.69-.82-.69-.62,0-1.25,0-1.91,0ZM19,29.01c0,.67,0,1.29,0,1.91,0,.45,.23,.78,.69,.81,.68,.04,1.35,.01,2.04,.01-.23-1.26-1.4-2.44-2.73-2.74Zm40.5,0c-1.35,.32-2.52,1.5-2.73,2.74,.69,0,1.37,.03,2.04-.01,.46-.03,.68-.36,.69-.82,0-.62,0-1.24,0-1.91Z"/>
  <path d="M23.24,52.49c.04-.69,0-1.36,.13-2,.41-1.96,2.11-3.35,4.11-3.37,2.27-.03,4.54-.02,6.81,0,.44,0,.73-.13,1-.48,1.32-1.72,2.85-3.2,4.86-4.12,3.24-1.48,6.51-1.56,9.81-.2,.15,.06,.31,.13,.53,.22,.28-1.01,1.06-1.06,1.93-1.06,3.33,.02,6.67,0,10,.01,1.15,0,1.58,.44,1.58,1.59,0,6.44,0,12.87,0,19.31,0,1.17-.42,1.6-1.57,1.6-3.46,0-6.92,0-10.37,0-1.06,0-1.45-.36-1.59-1.5h-.72c-7.33,0-14.67-.02-22,0-5.21,.02-9.63-1.79-13.28-5.5-2.12-2.15-4.29-4.25-6.4-6.42-2.35-2.41-1.4-6.29,1.75-7.25,1.71-.52,3.21-.08,4.47,1.17,2,1.98,3.98,3.98,5.97,5.96,.88,.87,1.87,1.57,2.98,2.02Zm27.23,7.51c.02-.14,.04-.22,.04-.3,0-4.62,0-9.25-.02-13.87,0-.22-.22-.52-.43-.64-3.43-2.07-7.93-1.68-10.93,.99-.89,.8-1.65,1.76-2.43,2.68-.45,.54-.96,.78-1.67,.77-2.46-.03-4.92-.02-7.37,0-1.15,0-1.96,.84-1.91,1.93,.05,1.06,.86,1.74,2.1,1.74,4.29,0,8.58,0,12.87,0,.29,0,.59,0,.86,.09,.56,.17,.84,.6,.84,1.18,0,.56-.29,.96-.81,1.14-.27,.09-.57,.08-.86,.08-4.37,0-8.75-.04-13.12,.02-3.78,.05-6.94-1.26-9.56-3.97-1.81-1.87-3.68-3.69-5.51-5.53-.52-.52-1.12-.8-1.86-.62-1.5,.37-1.91,2.07-.76,3.23,2.11,2.13,4.25,4.23,6.36,6.37,3.13,3.18,6.91,4.74,11.37,4.72,6.21-.03,12.41,0,18.62,0h4.18Zm10.99,1.49v-17.44h-8.4v17.44h8.4Z"/>
  <path d="M53.49,21.54c-.01,.69-.6,1.24-1.3,1.22-.67-.03-1.2-.59-1.19-1.26,.01-.66,.58-1.22,1.24-1.23,.68,0,1.27,.59,1.26,1.27Z"/>
  <path d="M40.5,33.03c-.01,.7-.6,1.25-1.3,1.22-.67-.03-1.2-.59-1.19-1.26,.01-.66,.58-1.22,1.24-1.23,.68,0,1.27,.59,1.25,1.27Z"/>
  <path class="cls-1" d="M35.17,24.06c1.3-1.68,1.48-3.41,.46-5.26-.08-.14,.01-.48,.14-.61,1.34-1.36,2.96-1.82,4.79-1.31,1.84,.51,2.99,1.77,3.41,3.62,.53,2.31-.76,4.64-2.95,5.5-2.17,.85-4.63,.04-5.84-1.95Z"/>
  <path class="cls-1" d="M56.75,11.25c.67,0,1.29,0,1.91,0,.46,0,.78,.24,.82,.69,.05,.67,.01,1.35,.01,2.04-1.26-.23-2.45-1.41-2.74-2.73Z"/>
  <path class="cls-1" d="M19,29.01c1.34,.3,2.51,1.48,2.73,2.74-.69,0-1.37,.03-2.04-.01-.46-.03-.68-.36-.69-.81,0-.62,0-1.24,0-1.91Z"/>
  <path class="cls-1" d="M59.5,29.01c0,.67,0,1.29,0,1.91,0,.45-.22,.79-.69,.82-.68,.04-1.36,.01-2.04,.01,.21-1.25,1.38-2.42,2.73-2.74Z"/>
</svg>