<?xml version="1.0" encoding="UTF-8"?>
<svg id="OBJECTS" xmlns="http://www.w3.org/2000/svg" viewBox="0 0 64 64">
  <path d="M0,49.51c.35-.4,.69-.83,1.07-1.21,3.68-3.69,7.36-7.37,11.04-11.05,.16-.16,.36-.29,.62-.5-.86-.85-1.66-1.6-2.42-2.38-1.37-1.39-1.87-3.03-1.28-4.92,.45-1.44,1.41-2.42,2.82-2.97,.17-.07,.34-.13,.51-.19-1.12-3.04,.48-5.91,3.48-6.67-.73-3.29,1.2-5.47,3.69-6.09-.42-1.83-.14-3.52,1.29-4.85,1.4-1.31,3.06-1.59,4.98-.99-.06-.34-.14-.61-.16-.88-.05-.77-.1-1.54-.1-2.31,0-1.08,.47-1.55,1.57-1.56,2.31-.01,4.62,0,6.94,0,1.02,0,2.04,0,3.06,.04,2.06,.1,3.83,.9,5.3,2.34,.26,.25,.44,.38,.85,.22,1.75-.71,3.41-.46,4.84,.76,1.42,1.21,1.91,2.77,1.55,4.6-.02,.12-.04,.24-.07,.42,1.34,.33,2.44,1.01,3.18,2.21,.74,1.21,.81,2.51,.48,3.9,1.48,.35,2.63,1.14,3.34,2.49,.7,1.34,.65,2.71,.19,3.94,.82,.57,1.67,.98,2.27,1.62,1.78,1.89,1.75,4.63-.13,6.52-4.24,4.3-8.5,8.59-12.85,12.77-3.09,2.96-6.9,4.5-11.15,4.95-.72,.08-.72,.07-1.5,.96,1.02,.32,1.96,.7,2.93,.89,.83,.16,1.7,.13,2.55,.13,.54,0,.96,.15,1.34,.53,2.16,2.17,4.33,4.33,6.49,6.5,.66,.66,.71,1.39,.17,1.93-.53,.53-1.29,.47-1.93-.17-1.98-1.97-3.94-3.95-5.93-5.91-.19-.19-.53-.34-.8-.34-2.22,.03-4.29-.48-6.2-1.62-.37-.22-.54-.09-.79,.16-2.49,2.51-5,5.02-7.5,7.52-.2,.2-.42,.42-.67,.56-.51,.28-1.02,.22-1.43-.19-.41-.4-.52-.91-.23-1.43,.14-.25,.35-.47,.55-.67,3.49-3.51,7-7.02,10.48-10.54,.49-.49,1.02-.74,1.7-.78,4.37-.28,8.05-2.06,11.13-5.13,3.88-3.87,7.76-7.73,11.6-11.63,.41-.42,.74-1.02,.87-1.59,.21-.9-.3-1.75-1.11-2.18-.8-.43-1.76-.35-2.45,.26-.55,.48-1.04,1.02-1.57,1.52-.54,.51-1.07,.61-1.59,.33-.79-.43-.88-1.37-.16-2.11,.97-1,1.97-1.98,2.96-2.96,.55-.54,.85-1.19,.73-1.97-.13-.88-.63-1.49-1.46-1.79-.87-.31-1.65-.09-2.3,.54-.97,.94-1.92,1.91-2.88,2.86-.19,.19-.39,.38-.62,.52-.48,.29-1.11,.18-1.48-.23-.38-.44-.46-.93-.16-1.44,.13-.23,.33-.43,.52-.62,1.35-1.36,2.71-2.71,4.06-4.07,.64-.65,.83-1.44,.55-2.3-.27-.82-.87-1.31-1.71-1.46-.8-.15-1.47,.15-2.03,.72-1.34,1.34-2.68,2.68-4.02,4.02-.16,.16-.33,.32-.52,.45-.5,.33-1.14,.26-1.54-.14-.41-.41-.48-1.05-.15-1.55,.14-.21,.32-.39,.49-.56,1.71-1.71,3.41-3.42,5.12-5.12,.67-.66,1.01-1.42,.72-2.37-.46-1.54-2.28-2.09-3.52-1.06-.24,.2-.45,.43-.68,.65-2.42,2.41-4.83,4.83-7.25,7.24-.16,.16-.36,.28-.56,.44,1.18,1.67,1.48,3.37,.6,5.14-.87,1.77-2.39,2.58-4.32,2.65-.19,2.97-2.14,4.79-4.79,4.91-.27,.84-.43,1.72-.83,2.47-.73,1.39-1.96,2.17-3.54,2.34-.4,.04-.72,.04-.76,.63-.21,3.18-3.53,5.2-6.46,3.94-.43-.19-.65-.1-.94,.19-3.88,3.9-7.77,7.78-11.66,11.67-.39,.39-.82,.82-1.4,.61-.39-.14-.69-.53-1.04-.81,0-.25,0-.5,0-.75ZM31.16,21.79c1.29-.02,1.97-.45,2.38-1.29,.41-.85,.23-1.78-.5-2.52-2.46-2.48-4.93-4.95-7.42-7.41-.93-.92-2.26-.91-3.13-.05-.88,.86-.89,2.24,.04,3.18,2.44,2.47,4.89,4.93,7.38,7.36,.4,.39,1,.59,1.26,.73Zm-3.1-16.34c-.18,1.97,1.21,3.52,3.15,3.56,1.14,.03,2.29-.02,3.44,0,.69,.02,1.16,.49,1.22,1.11,.06,.67-.35,1.19-1.05,1.33-.2,.04-.41,.04-.62,.04-1.34,0-2.68,0-3.86,0,.99,.99,2.09,2.09,3.07,3.07,2.41-2.41,4.87-4.87,7.35-7.35-.99-1-2.25-1.68-3.74-1.73-2.29-.07-4.58-.04-6.87-.05-.68,0-1.37,0-2.09,0Zm-1.73,21.25c1.26-.06,1.94-.48,2.31-1.31,.4-.89,.25-1.74-.42-2.43-2.09-2.12-4.19-4.23-6.32-6.32-.9-.88-2.24-.85-3.09,0-.88,.86-.9,2.21,0,3.14,2.06,2.09,4.13,4.18,6.24,6.22,.4,.39,1.01,.57,1.27,.7Zm-11.84-2.58c0,.92,.33,1.47,.82,1.96,1.56,1.56,3.12,3.12,4.68,4.68,.06,.06,.12,.12,.18,.17,.96,.87,2.29,.87,3.14,0,.84-.85,.87-2.18,0-3.09-1.11-1.16-2.26-2.28-3.39-3.41-.62-.62-1.22-1.26-1.88-1.82-.7-.59-1.52-.65-2.33-.24-.8,.4-1.18,1.08-1.21,1.75Zm4.57,9.88c-.1-.22-.2-.76-.52-1.1-1.19-1.27-2.42-2.52-3.7-3.71-.82-.76-2.1-.65-2.9,.12-.8,.77-.97,2.05-.21,2.88,1.22,1.34,2.51,2.61,3.83,3.84,.65,.6,1.49,.61,2.28,.2,.79-.4,1.18-1.08,1.21-2.24Z"/>
  <path d="M62.79,46.77c-.44-.26-.78-.39-1.03-.62-.96-.92-1.91-1.85-2.84-2.8-.6-.61-.62-1.38-.1-1.88,.51-.49,1.24-.47,1.84,.1,.97,.94,1.93,1.89,2.88,2.85,.41,.42,.63,.95,.29,1.47-.24,.36-.68,.58-1.04,.88Z"/>
  <path d="M55.35,39.21c.02-.67,.61-1.22,1.27-1.19,.66,.03,1.22,.63,1.19,1.29-.03,.66-.64,1.22-1.29,1.19-.67-.03-1.2-.61-1.18-1.29Z"/>
</svg>