<svg xmlns="http://www.w3.org/2000/svg" xmlns:xlink="http://www.w3.org/1999/xlink" width="90" height="90" viewBox="0 0 90 90"><defs><clipPath id="b"><rect width="90" height="90"/></clipPath></defs><g id="a" clip-path="url(#b)"><g transform="translate(9.997 5.729)"><g transform="translate(26.581 26.681)"><g transform="translate(0 0)"><rect width="43.419" height="28.317" fill="#ff9f0d"/></g></g><path d="M69.5,22.726H50.187V7.386A7.438,7.438,0,0,0,42.612,0H7.575A7.561,7.561,0,0,0,0,7.386V71.967a7.6,7.6,0,0,0,7.575,7.575H42.612a7.561,7.561,0,0,0,7.575-7.386V57.573H69.5a2.507,2.507,0,0,0,2.462-2.462V25.378A2.552,2.552,0,0,0,69.5,22.726ZM62.118,27.84,47.536,39.014,33.142,27.84ZM17.613,4.924H32.385V6.25H17.613ZM45.074,72.156a2.507,2.507,0,0,1-2.462,2.462H7.575a2.507,2.507,0,0,1-2.462-2.462V7.386A2.507,2.507,0,0,1,7.575,4.924h5.113V8.712a2.507,2.507,0,0,0,2.462,2.462H35.036A2.507,2.507,0,0,0,37.5,8.712V4.924h5.113a2.507,2.507,0,0,1,2.462,2.462v15.34H25.946a2.507,2.507,0,0,0-2.462,2.462V54.922a2.507,2.507,0,0,0,2.462,2.462H45.074ZM66.853,49.809,57,41.854A2.548,2.548,0,0,0,53.6,45.642l.189.189,8.522,6.818H33.332l8.9-6.818a2.267,2.267,0,0,0,.379-3.409,2.461,2.461,0,0,0-3.6-.379L28.408,50V30.491L46.02,44.127a2.3,2.3,0,0,0,3.03,0l17.8-13.636V49.809Z"/></g></g></svg>