<svg xmlns="http://www.w3.org/2000/svg" xmlns:xlink="http://www.w3.org/1999/xlink" width="90" height="90" viewBox="0 0 90 90"><defs><clipPath id="b"><rect width="90" height="90"/></clipPath></defs><g id="a" clip-path="url(#b)"><g transform="translate(6.428 6.764)"><path d="M29.314,1.6A21.157,21.157,0,0,1,50.468,22.754c0,11.773-20.234,32.191-20.234,32.191S10,35.447,10,23.674C10,12.085,17.542,1.6,29.314,1.6Z" transform="translate(8.28 1.343)" fill="#ff9f0d" fill-rule="evenodd"/><g transform="translate(0)"><path d="M38.576,9.565A13.244,13.244,0,1,0,51.821,22.81,13.189,13.189,0,0,0,38.576,9.565Zm0,21.89a8.462,8.462,0,1,1,8.462-8.462A8.559,8.559,0,0,1,38.576,31.455ZM77.021,74.131,67.272,43.964a2.488,2.488,0,0,0-1.656-1.656l-9.749-2.391c3.127-5.334,5.7-11.221,5.7-16.923a22.993,22.993,0,1,0-45.987,0c0,5.7,2.391,11.589,5.7,16.923l-9.933,2.391A2.175,2.175,0,0,0,9.7,43.964L.131,74.131a2.653,2.653,0,0,0,.552,2.391,2.72,2.72,0,0,0,2.391.736l18.763-4.6,16.187,4.6a1.571,1.571,0,0,0,1.288,0L55.5,72.66l18.763,4.6h.552a2.362,2.362,0,0,0,1.839-.736A2.313,2.313,0,0,0,77.021,74.131ZM19.63,68.061,6.018,71.372l7.91-24.833,9.565-2.391Zm16.555,3.5L24.412,68.245l3.311-19.5a119.669,119.669,0,0,0,8.462,9.013Zm2.391-18.211C33.794,48.746,20.55,34.766,20.55,22.81a18.027,18.027,0,1,1,36.054,0C56.6,34.95,43.359,48.93,38.576,53.345Zm2.391,18.211V57.76a90.266,90.266,0,0,0,8.462-9.013l3.311,19.5Zm16.555-3.5L53.476,44.332l9.565,2.391,7.91,24.833Z" transform="translate(-0.063)" fill-rule="evenodd"/></g></g></g></svg>