<svg xmlns="http://www.w3.org/2000/svg" xmlns:xlink="http://www.w3.org/1999/xlink" width="372" height="275" viewBox="0 0 372 275"><defs><clipPath id="b"><rect width="372" height="275"/></clipPath></defs><g id="a" clip-path="url(#b)"><g transform="translate(8.832 9.234)"><path d="M26.922,58.5,162.316,81.936l38.457-38.268a6.814,6.814,0,0,1,4.827-1.99h68.27a6.8,6.8,0,0,1,6.827-6.793h75.1V48.471H314.832V143.58h40.962v13.587H280.7a6.8,6.8,0,0,1-6.827-6.793H255l-72.988,36.318a22.333,22.333,0,0,1-21.218-.673L11.855,99.558A22.211,22.211,0,0,1,26.922,58.5Zm260.6,85.075h13.654V48.471H287.524ZM18.736,87.819l148.932,86.46a8.675,8.675,0,0,0,8.233.258l74.428-37.031a6.837,6.837,0,0,1,3.059-.72H273.87V55.264H208.425l-53.79,53.526a12.41,12.41,0,0,0,8.827,21.2,12.609,12.609,0,0,0,8.827-3.634L207.6,91.222l9.653,9.606-35.309,35.136a26.072,26.072,0,1,1-36.962-36.78l5.53-5.5L24.594,71.888a8.615,8.615,0,0,0-5.858,15.931Z" transform="translate(-0.788 66.706)" fill="#ffa900"/><path d="M69.577,29.969a29.6,29.6,0,0,1,39.3.788,26.61,26.61,0,0,1,0,38.967L74.288,102.5a6.855,6.855,0,0,1-9.414.007L30.281,69.731a26.611,26.611,0,0,1-.007-38.974V30.75A29.609,29.609,0,0,1,69.577,29.969ZM39.688,59.88,69.577,88.2,99.466,59.88a13.073,13.073,0,0,0,0-19.287,15.7,15.7,0,0,0-21.328,0l-3.844,3.641a6.86,6.86,0,0,1-9.414,0l-3.844-3.641A15.721,15.721,0,0,0,39.7,40.587a13.066,13.066,0,0,0-.014,19.293Z" transform="translate(94.272 -2.781)" fill="#ffa900"/><path d="M14.453,27.532l11.319-7.6A109.28,109.28,0,0,1,33.1,32.437L20.87,38.49A93.79,93.79,0,0,0,14.453,27.532Z" transform="translate(228.617 -19.93)" fill="#ffa900"/><path d="M29.911,34.534a107.87,107.87,0,0,1-3.919,13.947L13.123,43.957A94.983,94.983,0,0,0,16.55,31.749Z" transform="translate(240.884 48.543)" fill="#ffa900"/><path d="M29.757,37.748l-13.4,2.6a94.041,94.041,0,0,0-3.27-12.242L26.022,23.74A109.127,109.127,0,0,1,29.757,37.748Z" transform="translate(241.297 2.143)" fill="#ffa900"/><path d="M26.688,34.524q-.01,3.964-.287,7.867l-13.613-.958c.157-2.289.239-4.613.246-6.929q0-2.894-.171-5.754l13.627-.836C26.62,30.1,26.688,32.3,26.688,34.524Z" transform="translate(246.394 26.325)" fill="#ffa900"/><path d="M58.787,28.065a93.794,93.794,0,0,0-3.42,12.2L41.992,37.508A110.2,110.2,0,0,1,45.9,23.554Z" transform="translate(14.918 1.066)" fill="#ffa900"/><path d="M59.038,46.054,47.732,53.67a108.156,108.156,0,0,1-7.339-12.514L52.62,35.1A92.838,92.838,0,0,0,59.038,46.054Z" transform="translate(25.583 67.974)" fill="#ffa900"/><path d="M58.728,43.823,45.791,48.191A107.751,107.751,0,0,1,42.05,34.183l13.4-2.6A94.864,94.864,0,0,0,58.728,43.823Z" transform="translate(14.58 47.57)" fill="#ffa900"/><path d="M42.752,35.665c-.007-2.67.1-5.319.287-7.948l13.613.992c-.164,2.283-.253,4.592-.246,6.936q0,2.884.171,5.734l-13.627.836C42.821,40.034,42.752,37.846,42.752,35.665Z" transform="translate(11.864 25.184)" fill="#ffa900"/></g></g></svg>