<?xml version="1.0" encoding="UTF-8"?>
<svg xmlns="http://www.w3.org/2000/svg" xmlns:xlink="http://www.w3.org/1999/xlink" viewBox="0 0 370.72 340.1">
  <defs>
    <style>
      .cls-1 {
        fill: #fff;
      }

      .cls-2 {
        fill: #f4b860;
      }

      .cls-3 {
        fill: #2a88aa;
      }

      .cls-4 {
        isolation: isolate;
      }

      .cls-5 {
        fill: #663636;
      }

      .cls-6 {
        fill: #ffd5b3;
      }

      .cls-7 {
        opacity: .7;
      }

      .cls-7, .cls-8, .cls-9, .cls-10 {
        fill: #163f79;
      }

      .cls-8 {
        opacity: .4;
      }

      .cls-11 {
        fill: #e2e2e2;
      }

      .cls-11, .cls-12 {
        mix-blend-mode: multiply;
      }

      .cls-13 {
        fill: #fea700;
      }

      .cls-14 {
        fill: #ffc38d;
      }

      .cls-15 {
        fill: #a85252;
      }

      .cls-9 {
        opacity: .2;
      }

      .cls-12 {
        fill: #f9e9e1;
      }

      .cls-16 {
        clip-path: url(#clippath);
      }

      .cls-17 {
        fill: #31328c;
      }

      .cls-18 {
        fill: none;
      }

      .cls-19 {
        fill: #1a1a1a;
      }

      .cls-20 {
        fill: #00cb44;
      }

      .cls-21 {
        fill: #087f2c;
      }

      .cls-22 {
        fill: #f9a872;
      }

      .cls-23 {
        fill: #9f4743;
      }
    </style>
    <clipPath id="clippath">
      <path class="cls-18" d="M266.39,112.53c-9.35-44.67,9.83-82.26-85.17-93.7C86.22,7.39,44.27,48.55,40.38,64.69c-5.36,22.29,54.46,26.06,44.87,45.63-5.31,10.82-18.77,22.54-27.04,36.18-6.69,11.02-10,23.28-2.89,37.34,3.69,7.3-47.82,122.9,78.04,139.68,58.17,7.76,132.97-23.02,187.65-68.32,107.46-89.02-45.26-98-54.61-142.67h0Z"/>
    </clipPath>
  </defs>
  <g class="cls-4">
    <g id="OBJECTS">
      <g id="Layer_1">
        <g id="_187700000" data-name=" 187700000">
          <g>
            <g>
              <g>
                <path id="_186327680" data-name=" 186327680" class="cls-21" d="M319.49,105.27c0-5.3-1.92-5-1.92-10.49,0-5.85,6.46-8.68,6.46-13.72,0-5.04-1.21-16.55,9.08-16.55s9.08,11.5,9.08,16.55,6.46,7.87,6.46,13.72c0,5.5-1.92,5.2-1.92,10.49,0,7.47,6.96,7.11,6.96,20.18,0,16.34-20.58,16.95-20.58,16.95,0,0-20.58-.61-20.58-16.95,0-13.07,6.96-12.71,6.96-20.18Z"/>
                <path id="_186380968" data-name=" 186380968" class="cls-17" d="M332.31,171.56c.25,0,.45-.2,.45-.45V81.66c0-.25-.2-.45-.45-.45s-.45,.2-.45,.45v89.45c0,.25,.2,.45,.45,.45h0Z"/>
                <path id="_186381040" data-name=" 186381040" class="cls-17" d="M332.11,95.43c.12,0,.23-.04,.32-.13,.18-.18,.18-.46,0-.64l-7.26-7.27c-.18-.18-.46-.18-.64,0-.18,.18-.18,.46,0,.64l7.26,7.27c.09,.09,.2,.13,.32,.13h0Z"/>
                <path id="_186381112" data-name=" 186381112" class="cls-17" d="M332.11,121.9c.12,0,.23-.04,.32-.13,.18-.18,.18-.46,0-.64l-7.26-7.27c-.18-.18-.46-.18-.64,0-.18,.18-.18,.46,0,.64l7.26,7.26c.09,.09,.2,.13,.32,.13h0Z"/>
                <path id="_186381184" data-name=" 186381184" class="cls-17" d="M332.41,109.65c.12,0,.23-.04,.32-.13l9.59-9.59c.18-.18,.18-.46,0-.64-.18-.18-.46-.18-.64,0l-9.59,9.59c-.18,.17-.18,.46,0,.64,.09,.09,.2,.13,.32,.13h0Z"/>
              </g>
              <g>
                <path id="_186381256" data-name=" 186381256" class="cls-20" d="M280.35,73.54c0-7.56-2.74-7.12-2.74-14.97,0-8.35,9.21-12.38,9.21-19.58s-1.73-23.61,12.95-23.61,12.95,16.41,12.95,23.61,9.21,11.23,9.21,19.58c0,7.84-2.74,7.41-2.74,14.97,0,10.65,9.93,10.15,9.93,28.79,0,23.32-29.36,24.18-29.36,24.18,0,0-29.36-.86-29.36-24.18,0-18.64,9.93-18.14,9.93-28.79h0Z"/>
                <path id="_186381328" data-name=" 186381328" class="cls-17" d="M298.63,167.92c.25,0,.45-.2,.45-.45V39.86c0-.25-.2-.45-.45-.45-.25,0-.45,.2-.45,.45v127.61c0,.25,.2,.45,.45,.45h0Z"/>
                <path id="_186381400" data-name=" 186381400" class="cls-17" d="M298.34,59.31c.11,0,.23-.04,.32-.13,.18-.18,.18-.46,0-.64l-10.36-10.36c-.18-.18-.46-.18-.64,0-.18,.18-.18,.46,0,.64l10.36,10.36c.09,.09,.2,.13,.32,.13Z"/>
                <path id="_186381472" data-name=" 186381472" class="cls-17" d="M298.34,97.08c.11,0,.23-.04,.32-.13,.18-.18,.18-.46,0-.64l-10.36-10.36c-.18-.18-.46-.18-.64,0-.18,.18-.18,.46,0,.64l10.36,10.36c.09,.09,.2,.13,.32,.13h0Z"/>
                <path id="_186381496" data-name=" 186381496" class="cls-17" d="M298.78,79.6c.12,0,.23-.04,.32-.13l13.67-13.67c.18-.17,.18-.46,0-.64-.18-.18-.46-.18-.64,0l-13.67,13.67c-.18,.18-.18,.46,0,.64,.09,.09,.2,.13,.32,.13h0Z"/>
              </g>
            </g>
            <path id="_184523544" data-name=" 184523544" class="cls-8" d="M266.39,112.53c-9.35-44.67,9.83-82.26-85.17-93.7C86.22,7.39,44.27,48.55,40.38,64.69c-5.36,22.29,54.46,26.06,44.87,45.63-5.31,10.82-18.77,22.54-27.04,36.18-6.69,11.02-10,23.28-2.89,37.34,3.69,7.3-47.82,122.9,78.04,139.68,58.17,7.76,132.97-23.02,187.65-68.32,107.46-89.02-45.26-98-54.61-142.67h0Z"/>
            <g class="cls-16">
              <g>
                <g>
                  <path id="_1845237601" data-name=" 1845237601" class="cls-22" d="M133.32,66.16l33.43,63.52c5.16,9.81,32.96,16.04,41.29,23.85h0c4.21,3.95,9.14,6.23,14.16,8.94,1.45,.78,1.86,2.68,.86,3.99-5.41,7.12-17.24,2.42-23.33-.85l-1.99-1.07c-11.47-6.15,1.92,15.62,2.9,17.44l12.86,23.37,7.4,19.1c3.53,6.42-4.68,12.47-8.97,5.4l-7.9-16.69-12.74-19.07c-.23-.34-.71-.41-1.02-.14-.22,.19-.3,.51-.18,.79l12.46,29.34,6.01,16.32c2.15,6.73-7.67,9.87-10.63,4.05l-6.63-15.61-13.77-27.38c-.29-.58-1.43-.38-1.14,.37l9.8,24.7,3.91,13.39c1.87,5.15-.48,7.54-2.43,8.26-3.28,1.21-5.9-.97-7.63-4.16-1.66-3.07-2.48-7.75-5.12-13.29-5.43-11.39-11.54-24.82-12.65-27.27-.39-.86-1.33-.32-1.16,.28l5.56,20.24,2.49,12.61c.07,2.82-2.32,5.09-5.14,4.88h0c-2.22-.17-3.12-1.49-4.37-4.04,0,0-.82-5.18-2.9-10.83-3.42-9.25-7.95-21.76-9.17-25.45-8.75-23.21-14.16-25.39-16.99-51.55l-33.65-64.54c-1.77-2.77-1.18-6.44,1.37-8.51h0c4.35-3.53,29.73-20.56,35.01-10.39h0Z"/>
                  <path id="_184523784" data-name=" 184523784" class="cls-13" d="M154.18,95.35c-11.98,13.45-27.15,20.61-44.85,22.78L63.27,39.75,117.43,12.25l36.75,83.1Z"/>
                  <rect id="_185133000" data-name=" 185133000" class="cls-2" x="100.28" y="92.19" width="61.05" height="26.52" rx="4.33" ry="4.33" transform="translate(-32 63.94) rotate(-24.57)"/>
                </g>
                <g>
                  <path id="_184523664" data-name=" 184523664" class="cls-5" d="M302.9,104.3l-58.98,57.69c-7.92,7.75-4.6,36.36-9.32,46.76h0c-2.39,5.25-2.96,10.66-3.92,16.28-.28,1.63-1.94,2.62-3.5,2.1-8.48-2.84-7.83-15.55-6.69-22.36l.37-2.23c2.14-12.84-14.17,6.84-15.58,8.35l-18,19.68-15.71,13.14c-4.94,5.4-13.31-.42-7.99-6.76l13.27-12.84,13.96-18.19c.25-.33,.16-.8-.2-1.01-.26-.15-.58-.12-.8,.08l-23.78,21.23-13.52,10.94c-5.68,4.2-11.81-4.1-7.25-8.77l12.65-11.29,21.5-21.84c.46-.47-.1-1.47-.71-.96l-20.24,17.22-11.43,8c-4.27,3.42-7.3,1.97-8.6,.36-2.2-2.72-.98-5.9,1.49-8.56,2.38-2.56,6.55-4.84,10.94-9.12,9.04-8.8,19.8-18.9,21.76-20.74,.69-.64-.12-1.36-.64-1.01l-17.38,11.76-11.14,6.41c-2.65,.97-5.56-.56-6.27-3.3h0c-.56-2.15,.41-3.43,2.42-5.44,0,0,4.64-2.44,9.32-6.23,7.66-6.21,18.05-14.52,21.15-16.86,19.17-15.74,19.5-21.57,43.36-32.65l59.88-58.23c2.06-2.57,5.71-3.19,8.5-1.43h0c4.74,2.99,29.02,21.54,21.09,29.81h0Z"/>
                  <path id="_184523688" data-name=" 184523688" class="cls-3" d="M275.7,136.49c-16.58-7.02-28.24-19.08-35.98-35.16l38.87-46.75,43.45,42.46-46.34,39.45h0Z"/>
                  <path id="_184523568" data-name=" 184523568" class="cls-19" d="M219.82,125.47l13.16-12.46c.09-.09,.33,.02,.54,.24l29.39,31.06c.21,.22,.3,.46,.21,.55l-13.16,12.46c-.09,.09-.33-.02-.54-.24l-29.39-31.06c-.21-.22-.3-.46-.21-.55Z"/>
                  <rect id="_185669112" data-name=" 185669112" class="cls-3" x="229.23" y="123.05" width="24.48" height="24.22" rx=".39" ry=".39" transform="translate(-26.83 202.94) rotate(-43.42)"/>
                </g>
                <path id="_184523472" data-name=" 184523472" class="cls-14" d="M350.34,281.86l-114.07-47.85c-10.22-4.29-35.41,9.46-46.82,9.01h0c-5.76-.23-10.99,1.28-16.55,2.51-1.61,.36-3.16-.81-3.26-2.45-.57-8.93,11.44-13.12,18.18-14.63l2.2-.5c12.69-2.86-11.68-10.54-13.61-11.28l-25.02-9.24-18.1-9.59c-6.87-2.54-4.63-12.49,3.25-9.95l16.9,7.44,22.12,6.06c.4,.11,.8-.16,.86-.56,.04-.29-.11-.58-.38-.71l-28.63-14.01-15.23-8.4c-6.03-3.67-.67-12.49,5.38-10.02l15.23,7.46,28.34,11.67c.6,.25,1.33-.65,.62-1.02l-23.58-12.25-11.72-7.56c-4.78-2.67-4.58-6.02-3.57-7.83,1.69-3.06,5.09-3.13,8.49-1.85,3.27,1.23,6.95,4.24,12.57,6.69,11.56,5.05,24.98,11.2,27.42,12.33,.85,.39,1.21-.63,.69-.97l-17.45-11.66-10.14-7.89c-1.9-2.09-1.58-5.36,.69-7.05h0c1.79-1.33,3.33-.92,5.95,.19,0,0,4.01,3.38,9.28,6.28,8.64,4.75,20.26,11.24,23.59,13.23,21.81,11.81,27.33,9.92,46.6,27.83l114.24,41.33c3.16,.93,5.11,4.09,4.53,7.33h0c-.98,5.52-8.33,42.15-18.98,37.92h0Z"/>
                <g>
                  <path class="cls-22" d="M132.2,176.81c-.27,.11-.52,.24-.76,.38,.22,.18,.46,.36,.72,.52l15.23,8.4,8.63,4.22c-3.54-5.71-10.39-14.45-19.04-14.45-1.63,0-3.23,.32-4.78,.94Z"/>
                  <path class="cls-11" d="M203.95,167.44c-3.33-1.99-14.95-8.47-23.59-13.23-5.28-2.9-9.28-6.28-9.28-6.28-2.62-1.11-4.16-1.52-5.95-.19-2.27,1.69-2.58,4.96-.69,7.05l10.14,7.89,17.45,11.66c.52,.35,.16,1.37-.69,.97-2.44-1.12-15.86-7.28-27.42-12.33-2.4-1.05-4.43-2.19-6.24-3.26l-.45,13.21,.92,.59,23.58,12.25c.71,.37-.01,1.27-.62,1.02l-24.02-9.89-.05,1.34c0,.21-.02,.63-.02,1.21-.06,5.29-.31,8.76-.59,11.05l19.59,9.59c.27,.13,.42,.42,.38,.71-.06,.41-.46,.67-.86,.56l-22.12-6.06-16.9-7.44c-2.61-.84-4.59-.3-5.84,.87,2.12,3.49,4.11,6.82,5.32,10.53l15.37,8.15,25.02,9.24c1.93,.74,26.31,8.42,13.61,11.28l-2.2,.5c-6.74,1.52-18.75,5.71-18.18,14.63,.11,1.65,1.65,2.81,3.26,2.45,5.57-1.23,10.79-2.74,16.55-2.51,5.08,.2,12.87-2.41,20.87-4.99,5.44-13.12,6.18-20.37,7.15-29.94,.5-4.99,1.08-10.64,2.43-18.27,.5-2.24,1.52-7.45,2.66-13.39-5.03-2.26-10.76-4.74-18.61-8.99Z"/>
                </g>
                <g>
                  <path id="_184523856" data-name=" 184523856" class="cls-23" d="M115.51,187.46l8.22-2.35c10.66-3.04,22.55-28.89,31.93-35.41h0c4.74-3.29,8-7.64,11.7-11.98,1.07-1.25,3.01-1.26,4.08,0,5.83,6.78-1.23,17.36-5.69,22.64l-1.46,1.72c-8.41,9.93,15.68,1.37,17.66,.8l25.54-7.7,20.23-3.25c7.01-2.11,11.22,7.17,3.41,9.9l-17.97,4.25-21.3,8.49c-.38,.15-.55,.61-.35,.97,.14,.26,.44,.4,.73,.34l31.29-6.07,17.22-2.48c7.03-.7,8.06,9.56,1.74,11.24l-16.65,3.23-29.65,7.76c-.63,.17-.67,1.32,.12,1.19l26.2-4.44,13.91-1.03c5.42-.75,7.28,2.04,7.57,4.09,.5,3.46-2.18,5.57-5.66,6.6-3.35,.99-8.1,.81-14.07,2.24-12.27,2.94-26.68,6.11-29.31,6.69-.92,.2-.59,1.23,.04,1.19l20.95-1.22,12.85,.19c2.78,.52,4.49,3.33,3.7,6.04h0c-.62,2.14-2.1,2.74-4.86,3.43,0,0-5.23-.28-11.19,.58-9.76,1.41-22.94,3.24-26.8,3.66-24.53,3.72-27.79,8.56-53.96,5.87l-9.26,2.35c-3.08,1.16-6.54-.18-8.04-3.12h0c-2.55-4.99-13.91-33.36-2.87-36.4h0Z"/>
                  <path class="cls-12" d="M175.17,216.61c-9.88,2.51-20.16,3.39-30.32,2.59-2.72-.21-5.78-.74-7.31-3-.56-.82-.84-1.77-1.15-2.72-.57-10.62-3.62-19.49-10.38-29.35-.76,.43-1.52,.77-2.27,.98l-8.22,2.35h0c-11.05,3.04,.32,31.41,2.87,36.4,1.5,2.93,4.96,4.27,8.04,3.12l7.17-1.82h0l2.09-.53c23.67,2.43,28.6-1.3,47.47-4.78,.04-.39,.08-.77,.11-1.15,.04-.54,.08-1.09,.35-1.56l-8.44-.53Z"/>
                  <path class="cls-12" d="M196.18,189.55l25.12-6.58,4.53-1.19,16.65-3.23c2.39-.64,3.73-2.51,4.09-4.55-4.41,1.02-8.82,2.04-13.23,3.06-1.36,.32-2.73,.63-4.12,.81-1.11,.14-2.24,.2-3.36,.16-.82-.03-1.75-.15-2.25-.8-.35-.45-.42-1.06-.47-1.63-.04-.49-.09-.98-.13-1.47,.27-1.45,.55-2.91,.83-4.38l-.31,.05-31.29,6.07c-.29,.06-.59-.08-.73-.34-.2-.36-.04-.82,.35-.97l21.3-8.49,11.9-2.81,6.07-1.43c2.69-.94,3.95-2.65,4.17-4.41-2.24,1.19-4.75,1.85-7.29,1.88-.53,0-1.15-.07-1.39-.54-.19-.38-.06-.85-.17-1.25,.76-2.59,1.44-4.32,1.45-4.35l.21-.53,.05-.57c0-.08,.01-.17,.02-.25-.15,.04-.3,.07-.45,.12l-20.23,3.25-25.54,7.7c-1.98,.57-26.07,9.13-17.66-.8l1.46-1.72c4.46-5.27,11.53-15.86,5.69-22.64-1.08-1.25-3.01-1.24-4.08,0-2.86,3.36-5.47,6.72-8.7,9.6l-.69,4.07-.91,26.87c0,.21-.02,.63-.02,1.21-.07,5.58-.34,9.16-.64,11.44-3.43-5.67-10.45-15.04-19.41-15.04-.8,0-1.6,.08-2.39,.23-2.15,2.63-4.3,4.91-6.42,6.57-.02,1.19,.28,2.38,.91,3.43,.47,.79,.95,1.57,1.42,2.35,2.36,3.86,4.58,7.51,5.78,11.69,1.53,5.3,6.23,11.71,11.22,18.5,1.57,2.13,3.24,4.41,4.82,6.7,12.69-.49,19.21-3.84,37.31-6.58,3.86-.42,17.04-2.25,26.8-3.66,.09-.01,.17-.02,.26-.04h0c5.85-.82,10.93-.55,10.93-.55,2.61-.66,4.06-1.25,4.74-3.12-3.57,.46-7.21,.4-10.73-.31-1.04-.21-2.1-.48-3-1.05-.48-.3-1.19-1.68-1.17-1.94,.1-1.04,.21-2.11,.33-3.22l-1.87-.03-20.95,1.22c-.63,.04-.95-.99-.04-1.19,1.98-.43,10.7-2.35,20.13-4.53,0,0,0,0,0,0,.05-.01,.11-.03,.16-.04,1.06-.24,2.12-.49,3.18-.74,0,0,0,0,0,0,1.96-.46,3.92-.92,5.84-1.38,5.97-1.43,10.71-1.25,14.07-2.24,2.88-.85,5.21-2.44,5.64-4.92-4.35,1.34-8.79,2.41-13.29,3.16-2.88,.48-5.89,.82-8.66-.07-.66-.21-1.32-.51-1.73-1.07-.39-.52-.5-1.18-.62-1.83,.08-.46,.15-.91,.24-1.39,.17-.76,.4-1.86,.67-3.21l-24.27,4.11c-.79,.13-.75-1.02-.12-1.19Z"/>
                  <path class="cls-15" d="M234.21,159.37c1.54-1.99,1.14-4.56-.42-6.24-.62-.67-1.55-.96-2.45-.83-1.13,.16-2.26,.35-3.37,.61-.28,.06-.58,.14-.78,.35-.26,.27-.29,.67-.29,1.04-.02,1.64,.23,3.29,.72,4.86,.15,.47,.34,.97,.76,1.24,.37,.24,.83,.25,1.26,.24,.86-.01,1.72-.06,2.58-.15,.79-.08,1.51-.49,1.99-1.11Z"/>
                  <path class="cls-15" d="M247.18,173.75c.39-2.52-1.34-5.58-4.16-5.39-1.41,.1-2.82,.2-4.23,.29-.53,.04-1.09,.08-1.55,.35-1.11,.65-1.17,2.21-1.08,3.5,.06,.84,.11,1.7,.42,2.49,.3,.79,.89,1.51,1.7,1.77,.52,.17,1.09,.12,1.64,.08,1.77-.15,3.7,0,5.39-.69,1.16-.48,1.72-1.37,1.88-2.4Z"/>
                  <path class="cls-15" d="M243.5,192.15c.5-.9,.7-1.94,.52-3.15-.06-.39-.18-.8-.36-1.21-.52-1.14-1.72-1.79-2.97-1.75-1.77,.06-3.53,.23-5.27,.53-.47,.08-.98,.2-1.28,.57-.22,.28-.28,.64-.3,1-.04,.73-.03,1.47,.02,2.2,.07,1.12,.22,2.49,1.14,3.24,.78,.63,1.88,.63,2.88,.55,1.14-.09,2.28-.23,3.41-.41,.93-.15,1.75-.73,2.2-1.56Z"/>
                  <path class="cls-15" d="M225.6,210.25c.05,.54,.12,1.13,.47,1.54,.45,.53,1.19,.58,1.83,.58,1.63,.02,3.87,.51,4.99-.97,.91-1.2,.7-2.66-.49-3.63-1.23-.99-3.01-1.24-4.44-1.21-2.72,.07-2.62,1.06-2.37,3.68Z"/>
                  <path id="_185668848" data-name=" 185668848" class="cls-1" d="M120.47,182.98c10.66,14.52,13.35,26.5,11.77,44.27l-87.34,28.13-14.45-54.36,90.02-18.04h0Z"/>
                  <path id="_184523880" data-name=" 184523880" class="cls-10" d="M113.4,182.92c10.66,14.52,14.5,30.85,12.93,48.62l-87.34,28.13-15.61-58.71,90.02-18.04h0Z"/>
                </g>
                <g>
                  <path id="_185668896" data-name=" 185668896" class="cls-14" d="M161.07,267.15l2.12-26.44c.89-11.05-20.12-30.63-23.28-41.61h0c-1.6-5.54-4.67-10.03-7.59-14.92-.84-1.42-.23-3.25,1.3-3.87,8.29-3.35,16.05,6.74,19.61,12.66l1.16,1.93c6.71,11.15,6.33-14.41,6.43-16.47l.9-26.66,3.41-20.2c.25-7.32,10.4-8.33,10.47-.05l-1.75,18.38,1.2,22.9c.02,.41,.4,.71,.81,.64,.29-.05,.52-.29,.56-.58l4.3-31.59,3.18-17.1c1.59-6.88,11.64-4.56,11.21,1.96l-2.29,16.8-2.16,30.57c-.05,.65,1.04,1.05,1.16,.27l4.21-26.24,3.49-13.51c1.03-5.38,4.27-6.24,6.31-5.86,3.44,.64,4.58,3.85,4.43,7.48-.14,3.49-1.83,7.93-2.4,14.04-1.16,12.56-2.78,27.23-3.08,29.9-.1,.93,.97,.95,1.14,.35l5.58-20.23,4.31-12.11c1.39-2.46,4.59-3.19,6.91-1.57h0c1.82,1.28,1.92,2.87,1.69,5.71,0,0-1.94,4.87-3.04,10.79-1.79,9.7-4.29,22.77-5.14,26.55-4.35,24.42-.82,29.06-11.76,52.99l-2.45,27.43c.11,3.29-2.27,6.14-5.53,6.61h0c-5.54,.81-36.06,2.47-35.39-8.97h0Z"/>
                  <path class="cls-12" d="M223.32,146.71c-.11-.06-6.91,21.73-7.4,23.78-2.07,8.55-3.56,17.24-4.45,25.99-.84,8.18-.98,15.98-3.1,23.97-2.21,8.33-5.35,16.4-9.01,24.19-1.21,2.57-2.6,5.17-4.84,6.93-4,3.14-9.42,.9-14.02,.67-6.16-.31-12.35,.26-18.36,1.65,0,0-1.07,13.28-1.07,13.28-.66,11.44,29.85,9.78,35.39,8.97,3.26-.47,5.64-3.32,5.53-6.61l1.1-12.34,1.35-15.09c10.94-23.93,7.41-28.57,11.76-52.99,2.81-12.63,4.89-25.33,7.98-37.9,.39-1.6,.58-3.7-.87-4.48Z"/>
                  <path class="cls-12" d="M204.78,183.03c.42-.18,.55-.7,.63-1.15,.09-.55,.19-1.1,.29-1.64-.36,.26-1.01,.1-.93-.64,.3-2.67,1.92-17.34,3.08-29.9,.56-6.11,2.26-10.55,2.4-14.04,.12-3-.64-5.7-2.84-6.92-1.53,11.65-4.74,23.09-5.28,34.83-.2,4.49-.01,8.98,.18,13.47,.08,1.8,.18,3.68,1.1,5.22,.29,.49,.84,.99,1.37,.77Z"/>
                  <path class="cls-12" d="M189.87,176.87c.66,.29,1.4-.39,1.53-1.1,.14-.71,.44-1.27,.41-1.99-.13,.79-1.21,.39-1.16-.27l2.16-30.57,2.29-16.8c.17-2.47-1.18-4.34-3-5.33,.37,7.72-1.56,15.39-2.85,23.04-1.29,7.63-1.94,15.37-1.95,23.11,0,3.22,.16,6.64,1.95,9.31,.16,.24,.35,.49,.62,.61Z"/>
                  <path class="cls-12" d="M169.38,155.75c.09,4.06,.71,8.08,1.32,12.09,.39,2.56,.8,5.15,1.83,7.53,.22,.51,.49,1.03,.98,1.3,.83,.46,1.93-.1,2.39-.92,.47-.82,.48-1.82,.49-2.76-.08,.24-.27,.42-.52,.47-.41,.07-.78-.23-.81-.64l-1.2-22.9,1.75-18.38c-.03-3.18-1.55-4.99-3.42-5.6-.05,9.95-3.02,19.83-2.8,29.83Z"/>
                  <path class="cls-6" d="M140.57,191.21c.12-.4,.04-.84-.08-1.24-.57-1.99-1.6-4.31-3.11-5.77-.82-.79-1.96-1.33-3.1-1.17-.78,.11-1.47,.58-1.92,1.22,1.93,3.23,3.91,6.29,5.5,9.6,.84-.48,1.59-1.14,2.22-1.87,.2-.23,.39-.48,.48-.77Z"/>
                  <path class="cls-6" d="M174.6,127.21c-1.37-2.11-3.93-2.58-6.03-1.66-.83,.36-1.42,1.15-1.59,2.04-.22,1.12-.41,2.25-.54,3.38-.03,.29-.06,.59,.07,.85,.17,.33,.54,.5,.89,.62,1.55,.56,3.18,.87,4.82,.92,.49,.02,1.03,0,1.42-.31,.34-.27,.51-.7,.65-1.11,.27-.82,.51-1.65,.71-2.49,.18-.77,.04-1.59-.39-2.25Z"/>
                  <path class="cls-6" d="M192.45,119.7c-2.25-1.2-5.71-.57-6.46,2.15-.37,1.36-.75,2.73-1.12,4.09-.14,.52-.28,1.05-.18,1.58,.25,1.27,1.71,1.83,2.95,2.17,.81,.23,1.64,.45,2.49,.43,.85-.03,1.72-.34,2.23-1.02,.33-.44,.47-.99,.61-1.52,.44-1.72,1.23-3.49,1.12-5.32-.07-1.25-.73-2.07-1.65-2.56Z"/>
                  <path class="cls-6" d="M208.62,129.23c-.68-.76-1.6-1.3-2.81-1.53-.39-.07-.81-.1-1.26-.06-1.24,.11-2.26,1.03-2.63,2.22-.53,1.69-.94,3.41-1.23,5.16-.08,.47-.14,.99,.12,1.4,.19,.3,.52,.47,.85,.61,.68,.28,1.38,.51,2.08,.7,1.08,.3,2.43,.61,3.43,0,.85-.53,1.21-1.57,1.47-2.54,.3-1.11,.54-2.23,.73-3.36,.16-.93-.12-1.89-.75-2.59Z"/>
                  <path class="cls-6" d="M219.81,152.1c.53,.13,1.11,.26,1.61,.06,.65-.25,.94-.93,1.16-1.54,.55-1.53,1.75-3.49,.72-5.03-.83-1.25-2.28-1.54-3.58-.73-1.34,.83-2.16,2.43-2.6,3.8-.83,2.59,.14,2.82,2.7,3.45Z"/>
                  <path id="_183740848" data-name=" 183740848" class="cls-1" d="M157.6,262.15c17.17-5.43,33.87-3.83,50.19,3.37l-1.21,79.38-60.61-4.06,11.62-78.68h0Z"/>
                </g>
                <rect id="_185668968" data-name=" 185668968" class="cls-10" x="228.51" y="213.65" width="45.65" height="8.6" rx="1.39" ry="1.39" transform="translate(-38.2 381.78) rotate(-70.43)"/>
              </g>
            </g>
            <path class="cls-18" d="M266.39,112.53c-9.35-44.67,9.83-82.26-85.17-93.7C86.22,7.39,44.27,48.55,40.38,64.69c-5.36,22.29,54.46,26.06,44.87,45.63-5.31,10.82-18.77,22.54-27.04,36.18-6.69,11.02-10,23.28-2.89,37.34,3.69,7.3-47.82,122.9,78.04,139.68,58.17,7.76,132.97-23.02,187.65-68.32,107.46-89.02-45.26-98-54.61-142.67h0Z"/>
            <path id="_378593200" data-name=" 378593200" class="cls-9" d="M23.18,110.33c6.99-5.82,16.44-8.41,25.83-5.96,4.27,1.12,8.73,3.8,9.54,8.14,.82,4.4-2.35,8.43-5.1,11.96-4.34,5.57-8.12,11.58-11.25,17.9-2.11,4.26-3.98,8.73-7.13,12.29-3.15,3.56-7.98,6.08-12.61,5.03-6.61-1.5-9.7-9.14-10.51-15.86-.86-7.16-.31-14.58,2.36-21.28,1.94-4.85,5.04-9.03,8.88-12.23Z"/>
            <path id="_378593200-2" data-name=" 378593200" class="cls-7" d="M316.02,320.04c-9.2,2.64-19.39,1.13-27.39-5.21-3.64-2.89-6.79-7.36-5.74-11.88,1.07-4.59,5.83-7.12,9.98-9.35,6.54-3.52,12.72-7.71,18.42-12.47,3.83-3.21,7.53-6.72,12.07-8.81,4.54-2.09,10.26-2.47,14.28,.5,5.73,4.24,5.47,12.91,3.4,19.73-2.2,7.26-5.87,14.17-11.29,19.49-3.92,3.85-8.67,6.56-13.73,8.01Z"/>
            <g>
              <g>
                <path id="_187700144" data-name=" 187700144" class="cls-21" d="M64.97,261.3c0-4.94-1.79-4.66-1.79-9.8,0-5.46,6.03-8.1,6.03-12.81,0-4.71-1.13-15.45,8.48-15.45s8.48,10.74,8.48,15.45,6.03,7.35,6.03,12.81c0,5.13-1.79,4.85-1.79,9.8,0,6.97,6.5,6.64,6.5,18.84,0,15.26-19.22,15.83-19.22,15.83,0,0-19.22-.57-19.22-15.83,0-12.2,6.5-11.87,6.5-18.84Z"/>
                <path id="_187700168" data-name=" 187700168" class="cls-17" d="M76.94,323.2c.23,0,.42-.19,.42-.42v-83.52c0-.23-.19-.42-.42-.42s-.42,.19-.42,.42v83.52c0,.23,.19,.42,.42,.42h0Z"/>
                <path id="_187700192" data-name=" 187700192" class="cls-17" d="M76.75,252.11c.11,0,.22-.04,.3-.12,.16-.17,.16-.43,0-.6l-6.78-6.78c-.16-.16-.43-.16-.6,0-.16,.16-.16,.43,0,.59l6.78,6.78c.08,.08,.19,.12,.3,.12h0Z"/>
                <path id="_187700216" data-name=" 187700216" class="cls-17" d="M76.75,276.83c.11,0,.22-.04,.3-.12,.16-.16,.16-.43,0-.6l-6.78-6.78c-.16-.16-.43-.16-.6,0-.16,.16-.16,.43,0,.6l6.78,6.78c.08,.08,.19,.12,.3,.12Z"/>
                <path id="_187700240" data-name=" 187700240" class="cls-17" d="M77.03,265.4c.11,0,.22-.04,.3-.12l8.95-8.95c.17-.16,.17-.43,0-.6-.16-.16-.43-.16-.6,0l-8.95,8.95c-.16,.16-.16,.43,0,.6,.08,.08,.19,.12,.3,.12Z"/>
              </g>
              <g>
                <path id="_187700288" data-name=" 187700288" class="cls-20" d="M28.43,231.68c0-7.05-2.55-6.65-2.55-13.98,0-7.79,8.6-11.56,8.6-18.28s-1.61-22.04,12.1-22.04,12.09,15.32,12.09,22.04,8.6,10.48,8.6,18.28c0,7.32-2.55,6.92-2.55,13.98,0,9.95,9.27,9.48,9.27,26.88,0,21.77-27.41,22.58-27.41,22.58,0,0-27.42-.81-27.42-22.58,0-17.4,9.27-16.93,9.27-26.88Z"/>
                <path id="_187700312" data-name=" 187700312" class="cls-17" d="M45.5,319.8c.23,0,.42-.19,.42-.42v-119.15c0-.23-.19-.42-.42-.42-.23,0-.42,.19-.42,.42v119.15c0,.23,.19,.42,.42,.42Z"/>
                <path id="_187700336" data-name=" 187700336" class="cls-17" d="M45.23,218.39c.11,0,.21-.04,.3-.12,.16-.16,.16-.43,0-.6l-9.68-9.68c-.16-.16-.43-.16-.6,0-.17,.16-.17,.43,0,.6l9.68,9.68c.08,.08,.19,.12,.3,.12Z"/>
                <path id="_187700360" data-name=" 187700360" class="cls-17" d="M45.23,253.65c.11,0,.21-.04,.3-.12,.16-.16,.16-.43,0-.6l-9.68-9.68c-.16-.16-.43-.16-.6,0-.17,.16-.17,.43,0,.6l9.68,9.68c.08,.08,.19,.12,.3,.12Z"/>
                <path id="_187700384" data-name=" 187700384" class="cls-17" d="M45.63,237.34c.11,0,.22-.04,.3-.12l12.77-12.77c.16-.16,.16-.43,0-.6-.16-.16-.43-.16-.6,0l-12.77,12.77c-.16,.16-.16,.43,0,.6,.08,.08,.19,.12,.3,.12Z"/>
              </g>
            </g>
            <path id="_186382408" data-name=" 186382408" class="cls-10" d="M74.68,323.52s.14-11.3-15.32-8.91c0,0-5.06-7.59-12.93-7.59-7.31,0-10.69,7.03-10.69,7.03,0,0-5.76-.01-5.9,5.55,0,0-4.36-.38-5.77,3.93h50.62Z"/>
            <path id="_186382624" data-name=" 186382624" class="cls-10" d="M127.88,323.52s.19-14.97-20.3-11.8c0,0-6.7-10.06-17.13-10.06-9.68,0-14.15,9.31-14.15,9.31,0,0-7.63-.02-7.82,7.35,0,0-5.77-.5-7.64,5.2H127.88Z"/>
            <path id="_382362040" data-name=" 382362040" class="cls-1" d="M264.78,63.37s.26-21-28.47-16.56c0,0-9.4-14.11-24.03-14.11-13.58,0-19.85,13.06-19.85,13.06,0,0-10.71-.03-10.97,10.31,0,0-8.1-.71-10.71,7.29h94.04Z"/>
            <path id="_382362040-2" data-name=" 382362040" class="cls-1" d="M48.17,156.03s-.19-15.46,20.97-12.19c0,0,6.93-10.39,17.7-10.39,10,0,14.62,9.62,14.62,9.62,0,0,7.89-.02,8.08,7.59,0,0,5.97-.52,7.89,5.37H48.17Z"/>
            <path id="_186881608" data-name=" 186881608" class="cls-1" d="M262.72,188.72s-.2-16.24,22.02-12.8c0,0,7.27-10.91,18.58-10.91,10.5,0,15.35,10.1,15.35,10.1,0,0,8.28-.02,8.48,7.97,0,0,6.26-.55,8.28,5.64h-72.72Z"/>
          </g>
        </g>
      </g>
    </g>
  </g>
</svg>